<?xml version="1.0" encoding="UTF-8" standalone="no"?>
<!-- Created with Inkscape (http://www.inkscape.org/) -->

<svg
   version="1.1"
   id="svg1"
   width="942.66669"
   height="1333.3333"
   viewBox="0 0 942.66669 1333.3333"
   xmlns="http://www.w3.org/2000/svg"
   xmlns:svg="http://www.w3.org/2000/svg">
  <defs
     id="defs1" />
  <g
     id="g1">
    <path
       style="fill:#1a1a1a;stroke:none"
       d="m 681.33335,138.66666 c 0,14.7504 1.33333,29.29752 1.33333,44 0,4.85953 1.50879,12.84846 -1.96911,16.78393 -8.12708,9.19629 -29.47657,14.93416 -40.69756,19.76546 -41.44462,17.84424 -104.39258,35.42602 -114.09261,86.11726 -4.75089,24.82756 9.98747,44.22689 8.68522,68 -4.02413,73.46248 -7.30477,149.16747 -2.51237,222.66665 1.94218,29.7867 9.61117,58.51876 13.08024,88 3.23133,27.46085 -6.49381,52.71899 -6.49381,79.99999 0,10.60791 -1.26583,21.29378 4.67903,30.66667 6.566,10.35221 17.01624,18.63354 28.6543,22.58024 4.52291,1.53385 12.73889,2.70133 15.1543,-2.84571 3.14018,-7.21134 -8.20634,-25.99137 -9.82096,-34.4012 3.0983,2.56201 9.24987,11.08602 14.03088,8.06169 4.97481,-3.14681 -0.12138,-15.73348 -0.96297,-20.06169 -3.82365,-19.66447 -1.55001,-40.18554 -4.08028,-59.99999 -2.22026,-17.38688 -5.20748,-34.32328 -3.47526,-52 2.58101,-26.33838 10.80428,-52.16105 11.79626,-78.66666 1.82044,-48.64298 -8.35608,-103.67537 6.69137,-150.66666 h 2.66666 c 7.44401,23.05135 8.73588,45.62597 12.33952,69.33333 2.50236,16.4624 8.2985,32.49145 7.63578,49.33333 -0.9683,24.60726 -10.71215,51.31535 -14.30245,76 -6.64591,45.69311 -7.33333,95.34919 -2.82714,141.33332 4.19791,42.83821 12.40254,85.3059 24.37036,126.66666 8.91679,30.8164 23.87117,58.79964 20.6049,91.99999 -1.58533,16.1141 -6.06047,31.86193 -7.64193,48.00003 -3.20719,32.7283 -2.1252,66.1893 3.03703,98.6666 6.74023,42.4051 26.04447,80.9437 34.38269,122.6667 2.78389,13.9302 2.10583,26.7982 -3.48149,40 -4.44189,10.4953 -14.71765,26.4984 -4.33333,36.8827 12.9034,12.9034 54.45475,7.3028 56.69751,-12.8827 2.07748,-18.6975 -3.83642,-41.1148 -5.06787,-60 -2.06771,-31.7111 -0.0802,-64.2152 -0.0802,-96 0,-74.5371 -0.0958,-149.527 2.69132,-223.99999 0.88078,-23.53548 3.97535,-47.09049 3.97535,-70.66666 h 1.33333 c 0,28.91943 4.22819,57.79597 5.30867,86.66666 1.69792,45.36979 -1.62353,90.65039 -1.30867,135.99999 0.1818,26.1842 3.52921,52.485 3.99381,78.6667 0.78191,44.0625 -7.77075,88.2601 -6.55558,132 0.24349,8.7645 1.84546,22.4194 8.32723,28.9012 9.25,9.25 45.8759,10.1202 54.8086,0 6.11295,-6.9257 0.4563,-15.4773 -2.91976,-22.2346 -8.00383,-16.02 -12.08228,-32.6491 -10.90739,-50.6666 2.2574,-34.6201 20.07129,-67.8243 28.08642,-101.3334 8.40153,-35.1246 6.52759,-72.2947 5.19133,-108 -1.01017,-26.9925 -7.84204,-57.2026 -3.46908,-83.99996 4.38086,-26.84554 20.63168,-52.59375 28.7592,-78.66666 11.9554,-38.3527 18.49471,-82.60701 19.9939,-122.66666 1.45068,-38.76237 1.56396,-79.02754 -4.52474,-117.33333 -3.7898,-23.84236 -13.79997,-48.05867 -15.37036,-71.99999 -2.80591,-42.77767 5.95906,-89.43343 21.25309,-129.33333 h 1.33333 c 0.56836,18.21265 3.67017,36.42936 3.99382,54.66667 0.56518,31.84855 -2.15275,63.00064 1.51237,94.66666 3.58341,30.95996 18.55306,63.49938 17.07405,94.66666 -1.23673,26.06046 -14.49454,51.74348 -19.64811,77.33333 -1.43782,7.13932 -7.19629,20.51334 -3.62964,27.51855 3.57495,7.0214 14.92383,-8.02246 18.03085,-10.18522 0,11.96419 -6.96054,24.70719 -6.10498,36 1.05428,13.91512 19.12719,11.82877 27.43831,6.56168 28.32992,-17.95345 19.73364,-57.37833 18.69132,-85.22834 -0.5074,-13.55721 1.40577,-27.84636 2.82105,-41.33334 4.40731,-41.99849 14.71606,-84.27628 13.12964,-126.66665 -0.47933,-12.80803 -1.35344,-26.18441 -4.46916,-38.66667 -2.61824,-10.48917 -7.98771,-22.36938 -7.30249,-33.33333 1.35441,-21.67106 10.30916,-41.84424 10.46297,-64 0.13965,-20.10986 -9.02506,-40.33984 -7.7963,-59.99999 1.70858,-27.33765 13.17781,-52.29272 4.16666,-80 -4.96191,-15.25675 -16.89518,-23.52522 -29.70369,-32 -23.25749,-15.38834 -48.80884,-28.76261 -74.66667,-39.1975 -12.88167,-5.19841 -37.08016,-8.48918 -43.70988,-22.13583 -2.34497,-4.82682 -1.62345,-10.79972 -1.62345,-15.99999 0,-12.83667 -3.26872,-33.84766 3.77164,-45.24691 6.20785,-10.05119 17.05925,-10.75578 20.59253,-24.08642 1.83155,-6.91008 4.07764,-17.301516 0.47535,-23.913576 -2.30054,-4.222656 -7.38314,-5.873372 -8.5494,-10.77775 -2.3256,-9.780029 -0.35637,-20.619302 -2.79631,-30.642007 C 790.76654,20.366047 767.80291,2.9143878 740.00002,0.17903645 712.27834,-2.5483397 685.24774,17.240233 678.5062,43.999997 c -3.3833,13.429606 -0.7913,28.299152 -4.29631,41.308673 -1.68477,6.253336 -9.08093,6.969238 -10.88273,13.364176 -3.52828,12.522464 3.07007,39.284094 18.00619,39.993814 m 98.66667,54.66666 h -1.33334 l -42.66666,-56 h -2.66667 c -8.86312,19.52816 -28.92009,45.36589 -46.66667,57.33333 l -4,-59.99999 c -14.9755,3.07853 -28.0533,-39.90747 -5.33333,-39.999999 0,-24.825275 -1.38957,-51.750892 15.24072,-71.999996 24.74544,-30.1302062 78.81519,-24.2054019 96.42595,10.666666 8.16154,16.161132 4.62793,31.50659 8.62345,47.969154 1.13379,4.671549 5.55526,4.927409 8.2037,8.314778 2.75691,3.526123 2.38566,8.877197 1.82714,13.049397 -1.07023,7.99471 -3.28515,17.81828 -9.35799,23.56787 -4.1556,3.93441 -10.9598,4.25806 -13.48152,9.85189 -7.18547,15.93912 -3.66301,40.0996 -4.81478,57.2469 M 146.66667,133.33333 v 38.66666 c 0,5.22095 1.35188,12.68839 -1.96914,17.12964 -7.65813,10.24137 -28.0616,15.38867 -39.36419,20.58642 C 65.91205,227.84488 7.0931233,244.40982 0.34567901,294.66665 -3.0558746,320.00234 14.233689,343.02382 13.308642,367.99998 12.514725,389.43569 2.8166549,410.30971 4.080247,431.99997 5.0594175,448.808 15.650953,465.00624 14.58642,481.3333 13.209356,502.45366 1.9269441,522.46343 2.691358,543.99997 c 1.5653502,44.10204 12.458337,85.85058 18.296297,129.33332 1.511677,11.25944 -1.506359,23.40332 -2.240741,34.66667 -1.204269,18.47021 -0.494384,37.77018 2.487655,55.99999 1.823662,11.14844 4.287135,24.64144 12.672839,32.90739 5.566516,5.48698 35.918196,18.19987 37.265435,3.06787 0.994853,-11.17399 -10.792048,-22.69954 -11.172842,-34.64192 2.756724,3.25594 12.973216,24.28271 18.790126,15.51855 3.644923,-5.4917 -3.788233,-21.31999 -4.90741,-27.51855 -2.551259,-14.13005 -2.866155,-28.54606 -5.617284,-42.66667 -2.084676,-10.70003 -6.952759,-21.19694 -8.086421,-31.99999 -3.205098,-30.54265 4.669363,-62.99862 7.641978,-93.33333 2.510895,-25.62297 -2.26771,-50.71615 -1.067901,-76 1.383601,-29.15698 9.246913,-57.05094 9.246913,-86.66666 h 1.333333 c 5.214091,42.69743 20.281871,82.84684 18.641978,126.66666 -0.795715,21.26261 -11.450678,40.43864 -14.2963,61.33333 -3.516739,25.82259 -1.679011,52.62968 -1.679011,78.66666 0,22.79102 -2.043152,46.65674 0.179011,69.33333 4.210078,42.96273 15.052485,85.24796 27.037037,126.66666 6.63615,22.93457 15.29934,45.63753 18.90124,69.33333 C 132.58132,997.19159 124,1041.2428 124,1083.9999 c 0,62.1595 40.39298,115.9058 42.40741,177.3334 0.34691,10.5784 -1.7761,25.7018 -7.84568,34.5864 -3.2515,4.7595 -9.40274,6.9563 -12.04321,12.1049 -2.07637,4.0486 -0.90172,9.468 3.0247,11.8951 11.37589,7.032 30.08477,1.6393 42.45678,1.4197 4.84333,-0.086 12.99335,1.3787 15.3642,-4.216 2.4811,-5.8548 0.42139,-15.0684 -0.35185,-21.1235 -1.62272,-12.7073 -3.43678,-25.8819 -4.26544,-38.6666 -0.88214,-13.6102 5.71369,-26.3277 5.2284,-40 -0.80626,-22.7152 -2.71247,-45.2385 -1.2284,-68 0.87016,-13.346 3.8939,-26.5964 3.91976,-40 0.0713,-36.986 -5.4047,-73.6675 -5.33333,-110.66669 0.0584,-30.29045 4.17832,-60.46338 5.30863,-90.66667 1.5752,-42.09114 0.0247,-84.54255 0.0247,-126.66665 H 212 c 6.34705,53.45955 -0.65574,108.85595 1.35804,162.66665 0.78121,20.875 4.93253,41.82178 5.30247,62.66666 0.74611,42.0413 -4.07491,83.3016 -3.99384,125.3333 0.0335,17.3646 6.37649,34.6679 5.25309,52 -0.79705,12.2974 -6.2197,25.0119 -5.07407,37.3334 2.06054,22.1616 10.75832,38.7444 4.37036,61.3333 -2.58848,9.1533 -13.22048,30.6924 -1.69753,37.0432 11.24829,6.1995 35.12937,1.6479 47.81482,1.6235 4.78855,-0.01 11.70774,0.397 14.55556,-4.4322 3.54224,-6.0066 -3.99029,-14.6181 -6.75928,-19.5678 -7.52193,-13.4462 -10.46295,-27.3116 -10.46295,-42.6667 0,-49.0242 22.96385,-97.6458 32.53087,-145.3333 5.33795,-26.6075 7.99568,-54.3544 4.45678,-81.3334 -2.51646,-19.1843 -10.76861,-37.71855 -8.80863,-57.33329 3.07589,-30.78239 17.91663,-61.69206 24.60494,-92 12.13405,-54.9851 18.89042,-110.74576 24.37036,-166.66665 2.99184,-30.53084 -1.58427,-65.02848 -8.99381,-94.66666 -4.14614,-16.58456 -12.28982,-32.09782 -13.4136,-49.33333 -3.0776,-47.20191 14.12095,-93.36735 17.25309,-140 h 1.33334 c 0.18007,14.74667 6.88041,28.26017 7.91976,42.66667 2.27006,31.46582 -2.90511,64.99609 3.31482,95.99999 6.49121,32.3562 23.16748,67.91341 21.83947,101.33333 -0.47937,12.06417 -6.0417,24.55761 -9.46293,36 -4.44995,14.88313 -7.29891,30.20955 -10.75309,45.33333 -1.89172,8.28271 -7.7238,23.59065 -4.22225,31.79012 4.86735,11.3977 15.71745,-6.33838 18.03088,-10.45679 1.19857,4.52995 3.31572,10.13721 1.22221,14.66667 -2.45776,5.31762 -8.88786,8.49861 -9.69132,14.66666 -1.46896,11.27669 13.04252,11.90487 20.46911,9.67285 39.83411,-11.97184 32.00631,-61.61539 27.84567,-92.33951 -1.14315,-8.44141 -3.21712,-16.8007 -1.96293,-25.33333 3.93961,-26.80265 11.7454,-54.24381 12.75923,-81.33333 1.59123,-42.51766 -6.45857,-83.29777 -7.9506,-125.33333 -0.98523,-27.75707 2.33012,-56.04614 1.28394,-83.99999 -0.42538,-11.3658 -4.00875,-22.11621 -5.1296,-33.33333 -2.64433,-26.46403 14.71948,-49.82617 8.88269,-77.33333 -4.26677,-20.10815 -18.85917,-38.24862 -37.06173,-47.67285 -7.67944,-3.97599 -17.95801,-5.07259 -24.98149,-9.48763 -4.31494,-2.7124 -6.93078,-7.83854 -11.04321,-10.98144 -9.06535,-6.92806 -20.04887,-11.29541 -30.64197,-15.30868 -10.91819,-4.13647 -22.19299,-7.70329 -33.33333,-11.19751 -4.41305,-1.38419 -10.64056,-2.2032 -13.82717,-5.90128 -3.75344,-4.35588 -2.13595,-12.80445 -2.17283,-18.11727 -0.0892,-12.8527 -1.33333,-25.71981 -1.33333,-38.66666 20.52048,-2.77035 27.59763,-33.23104 17.42592,-49.302492 -2.63416,-4.162028 -7.36259,-5.97526 -9.14815,-10.728352 C 258.49952,57.920976 261.46912,41.219561 252.11729,26.666665 240.68472,8.8758133 215.45494,5.4783525 196,6.7469071 170.5482,8.4064936 151.43899,23.6416 143.62963,47.999997 c -3.09923,9.66691 -2.38325,21.560139 -6.2037,30.642007 -2.36844,5.630126 -8.74945,7.665282 -11.08642,13.364175 -6.46483,15.765051 1.85675,41.251951 20.32716,41.327151 m 116,-52.000002 c 17.23468,1.984131 13.7264,32.410802 5.90741,42.580242 -3.67948,4.78556 -10.96077,4.84155 -14.06173,9.68522 -2.62156,4.09489 -3.13606,9.95158 -5.56172,14.4012 -7.19572,13.19979 -19.46906,28.89803 -32.95063,36.01855 -37.38767,19.74699 -66.66666,-21.81762 -66.66666,-54.68521 -18.30546,5.94881 -26.9099,-24.08179 -19.91359,-37.302493 2.68266,-5.069335 8.95261,-6.485188 11.07408,-12.037027 7.31599,-19.145832 3.42788,-39.352536 19.69135,-55.814775 24.65231,-24.9535304 81.84414,-20.6613757 94.40125,14.487629 4.70408,13.167317 6.42814,28.830728 8.08024,42.666664 m 474.66668,62.666662 c 13.32243,20.1202 32.43807,48.38558 52.02466,62.64192 10.37777,7.55363 25.00358,8.21892 34.64201,16.02474 l -52,15.61117 -38.66667,11.0555 2.58642,-76 1.41358,-29.33333 m -5.33333,1.33333 c 0.39672,32.4926 5.37239,70.81226 -2.66667,102.66666 -27.31657,-3.33577 -61.63961,-13.90673 -86.66667,-25.33333 v -1.33333 l 42.58643,-20.43213 46.74691,-55.56787 m -478.66668,2.66667 c 0.0231,34.05444 8.32991,65.92895 -17.41358,93.33333 -4.38566,4.66862 -20.91278,21.1888 -28.61729,16.06787 -5.9717,-3.96916 2.97769,-24.19344 4.69753,-29.4012 9.179,-27.79444 16.86994,-61.01766 41.33334,-80 m -102.66667,6.66667 c 5.51821,10.53597 13.79473,19.09318 19.58643,29.33333 11.75549,20.7845 23.66347,51.96435 24.41357,75.99999 -37.8115,-8.43953 -45.33333,-44.32307 -45.33333,-77.33332 0,-8.25114 -2.25349,-20.57235 1.33333,-28 M 224,183.99999 206.68519,237.33332 200,259.99998 188.37039,222.66665 174.66667,186.66666 197.33334,190.58023 224,183.99999 m -78.66666,10.66666 3.85802,24 9.47531,21.33334 C 148.11345,232.6542 126.8822,202.51797 145.33334,194.66665 m 97.33333,44 c 4.92049,-10.90641 11.62649,-19.92456 13.85803,-32 0.51156,-2.76814 -0.0418,-10.3339 3.65432,-11.07405 6.04789,-1.21102 1.40806,10.36059 0.7037,12.40739 -3.80614,11.05997 -8.31588,23.77059 -18.21605,30.66666 m 100,-6.66666 -52,1.51237 -50.66666,11.82096 c 6.6054,-8.64087 13.59265,-15.12362 18.28395,-25.33333 2.40884,-5.24235 4.32343,-16.76953 9.19753,-20.12346 4.49874,-3.09562 14.59241,2.24333 19.18518,3.57406 18.23627,5.28385 44.77834,12.11214 56,28.5494 m -208,-32 14.66667,36 L 116,232.08023 69.333335,231.99999 90.666669,219.67902 134.66667,199.99999 m 586.66668,49.33333 v 1.33333 c -34.56071,4.22038 -74.28512,16.54183 -102.66667,36.96297 -15.38452,11.0695 -28.0459,25.68245 -41.33333,39.03703 -13.41069,13.47843 -28.70822,26.26595 -38.66667,42.66666 -18.60201,-31.87972 -15.27779,-77.11026 12,-102.58642 12.19238,-11.38712 30.3206,-17.64005 45.33333,-24.46297 11.99211,-5.45011 28.04761,-16.45768 41.33334,-17.27775 9.00496,-0.55583 20.77217,5.63656 29.33333,8.30859 17.98877,5.61442 37.17936,9.08993 54.66667,16.01856 m 153.33334,-4 v 1.33333 l -40.00001,11.71607 -21.33333,13.14192 -22.66667,-5.7963 -49.33333,-13.72836 24,-8.94449 42.66667,-12.93824 24,-4.41357 42.66667,19.62964 m -756.00002,-9.33333 c -4.94738,18.18538 -24.745597,34.94547 -38.666668,46.56786 -13.069438,10.91138 -31.180451,19.4222 -41.086422,33.43213 -4.732356,6.69295 -9.739194,23.68807 -18.919753,24.95679 -8.193333,1.13224 -11.2535848,-8.14193 -12.833333,-14.29012 -4.1316777,-16.08008 -6.18684591,-32.10539 0.080247,-48 C 23.05332,238.56273 80.321077,223.5126 118.66667,235.99999 m 6.75309,0.46297 c 12.0894,-3.16 28.96574,5.17928 38.58024,11.53702 7.67835,5.07748 24.60574,10.13461 29.56173,17.54322 4.42509,6.61499 3.75688,18.82153 3.77161,26.45678 0.0307,15.9375 1.33333,31.95939 1.33333,48 0,21.7644 1.47306,52.51757 -25.33333,59.80859 -20.19578,5.493 -49.52364,3.78068 -69.33334,-2.49382 -6.08505,-1.92732 -14.80556,-4.12768 -19.5679,-8.53084 -10.364334,-9.5826 -15.29979,-30.59749 -20.432099,-43.4506 -3.534749,-8.85221 -13.740789,-27.71696 -11.185181,-37.25309 1.449819,-5.40999 9.660055,-9.42374 13.851848,-12.57405 10.686168,-8.03117 21.253327,-16.66219 30.660493,-26.17285 6.869559,-6.94515 13.145829,-14.71778 18.820999,-22.66667 2.6005,-3.64241 4.54636,-8.96859 9.2716,-10.20369 m 233.24691,70.20369 c -4.21496,18.88419 -15.40197,38.53287 -23.69753,55.99999 -8.57375,18.05282 -14.95453,34.67399 -36.30247,38.93213 -23.81402,4.75 -71.85982,4.13916 -84.01853,-21.59879 -7.46426,-15.80054 -2.47319,-40.11515 -4.16048,-57.33333 C 209.08743,308.37775 208,294.39663 208,279.99998 c 0,-4.77238 -1.49328,-12.70988 1.18521,-16.9012 2.95088,-4.61759 11.37894,-6.17993 16.14813,-8.22225 13.95178,-5.97469 28.05255,-11.29313 42.66667,-15.42594 5.2917,-1.4965 13.31642,-4.9327 18.64196,-2.2592 9.23096,4.63403 17.19621,20.42708 24.20372,28.14193 13.45428,14.81241 31.2462,30.16739 47.82098,41.33333 m -66.66666,-70.66666 c 38.4544,0 79.12744,-4.25481 104.72221,30.66666 11.30481,15.42423 14.41072,34.78491 11.37654,53.33333 -1.14229,6.98299 -1.75846,16.1276 -8.18518,20.49381 -11.26237,7.65153 -22.08724,-17.88427 -28.25928,-24.31477 -19.87125,-20.70353 -45.57548,-35.545 -64.20367,-57.51237 -5.9078,-6.9668 -12.84558,-13.71606 -15.45062,-22.66666 m 634.66668,139.99999 c -13.25684,-5.59432 -22.48112,-21.71013 -32.08024,-32 -23.13306,-24.79777 -45.48088,-52.71761 -74.58643,-70.66666 4.05696,-9.30729 16.25724,-13.96525 25.33333,-17.27775 9.23804,-3.37158 22.05103,-7.7522 32,-6.51237 17.44401,2.17383 41.90536,21.23592 50.58643,35.79012 15.73454,26.37955 0.6158,62.84374 -1.25309,90.66666 m -196.00001,-124 -5.25309,96 -5.41357,61.33333 c -12.13265,-8.47502 -18.88412,-27.94743 -24.26547,-41.33333 -8.45166,-21.02344 -19.27046,-41.08089 -29.38887,-61.33333 -3.54029,-7.08602 -15.09603,-25.21989 -11.64197,-33.22843 2.56474,-5.94654 13.1449,-7.45622 18.62964,-9.04322 18.12036,-5.24308 38.39486,-11.80403 57.33333,-12.39502 m 80,21.33334 c -2.27197,13.95459 -15.17423,29.3269 -20.96915,42.66666 -14.14559,32.56258 -23.42798,65.41536 -44.36418,94.66666 -10.00016,-8.08797 -5.56852,-24.64168 -7.21607,-36 -1.66642,-11.4882 -0.11108,-23.11726 -0.86417,-34.66666 -1.86996,-28.67814 -3.91976,-57.91854 -3.91976,-86.66666 l 77.33333,20 M 205.33334,262.66665 c 0,29.31356 0.96745,58.88069 3.82098,88 1.05984,10.81518 -1.81126,22.20532 4.29012,31.99999 13.94306,22.38314 45.94308,22.66667 69.22223,22.66667 10.91708,0 22.76203,-0.84562 32,-7.41976 13.72522,-9.76741 20.55382,-29.51286 26.66667,-44.58024 h 1.33333 c -0.62475,9.30135 -0.13558,24.96338 -3.7716,33.33333 -3.81271,8.7767 -12.46287,16.18018 -17.95063,24 -13.45031,19.16618 -27.56848,39.50684 -36.37654,61.33333 -11.02053,27.309 -5.90123,64.35555 -5.90123,93.33333 0,18.11344 -2.38867,38.08146 0.2037,56 1.06986,7.39501 5.97591,12.14355 13.12964,13.33333 -2.12895,9.6556 -4.54397,26.31266 -10.33952,34.2963 -8.67784,11.95414 -30.73454,21.28914 -42.99382,29.72225 -7.25805,4.99267 -18.7326,17.04785 -28,16.9012 -6.71995,-0.10628 -13.716,-7.6748 -18.66667,-11.58642 -11.74859,-9.2828 -23.90972,-18.03288 -36,-26.85803 -5.18428,-3.78422 -13.49461,-7.76221 -16.84568,-13.34567 -3.6812,-6.1335 -9.24454,-23.28832 -8.11728,-30.38272 0.83811,-5.27458 6.82519,-9.6552 8.88271,-14.74691 4.97014,-12.29948 4.29021,-24.52433 2.40741,-37.33333 -2.43148,-16.54175 -7.18406,-32.69206 -8.81481,-49.33333 -2.36141,-24.09749 -0.8628,-48.80558 -9.08642,-72 -8.67112,-24.45654 -27.933486,-43.00146 -37.759261,-66.66666 27.314441,9.06168 70.991641,23.10709 97.333331,3.3457 24.60372,-18.4576 17.00861,-55.72135 16.0247,-82.01236 -0.663,-17.71631 0.88119,-34.70036 -4.0247,-52 h 9.33334 m 445.33334,10.66667 28,63.99999 c -10.72652,0 -27.74703,1.9878 -37.25309,-3.77164 -8.85417,-5.36442 -15.78642,-19.71371 -21.41358,-28.22836 -1.91719,-2.90096 -5.29842,-6.81502 -4.48767,-10.58642 1.88184,-8.75391 27.12399,-20.10612 35.15434,-21.41357 m 134.66667,61.33333 c 3.42847,-15.36035 11.30428,-32.13705 19.79631,-45.33333 2.51668,-3.91081 6.0791,-11.26652 10.9506,-12.51229 7.163,-1.83171 16.30208,6.61621 21.25309,10.65421 3.76701,3.07235 10.51091,7.57894 11.85807,12.52474 1.59001,5.83732 -9.28165,13.40104 -12.642,17.33333 -5.40861,6.32919 -11.92798,17.53866 -19.29631,21.48145 -8.31592,4.44979 -24.24658,-0.1084 -31.91976,-4.14811 M 610.66668,297.33332 c 8.37606,9.54109 21.4541,23.3649 24,35.99999 -15.45284,-0.18864 -33.4255,-6.92309 -46.66667,-14.66666 l 22.66667,-21.33333 m 121.33334,1.33333 c 2.41072,9.55241 0.99243,19.56648 1.35799,29.33333 0.85018,22.71802 0.11727,46.78703 2.98771,69.33333 0.77311,6.07259 4.92562,28.14127 -4.3457,29.37036 -9.56511,1.26798 -6.75627,-23.97298 -6.66049,-29.37036 0.37037,-20.86971 3.18848,-41.80631 3.96916,-62.66666 0.39014,-10.42399 -1.81746,-26.66341 2.69133,-36 m 140,25.33333 c -13.74894,7.54622 -33.65959,13.60319 -49.33334,14.66667 4.77279,-10.07878 13.47461,-18.86866 21.33334,-26.66667 2.36824,-2.34993 5.62085,-6.72843 9.33333,-6.72843 6.91154,0 15.2723,13.60213 18.66667,18.72843 M 48.000001,309.33331 c 6.080536,13.57984 8.886795,29.57186 12.493826,44 7.310608,29.24243 14.983688,57.76644 9.10494,88 -3.042954,15.64949 -12.31776,44.2574 -33.598766,39.36417 -18.5268,-4.25993 -24.580989,-25.88371 -27.2098772,-42.03084 -5.0496156,-31.01562 6.6860472,-72.32063 20.2160492,-99.99999 4.982941,-10.19401 9.564466,-22.49195 18.993828,-29.33334 m 313.333339,1.33334 c 11.18168,4.71858 18.48922,17.77783 24.2037,28 17.58675,31.4593 17.74414,63.69465 17.12345,98.66666 -0.24528,13.8199 -6.3774,41.98925 -20.01851,48.67285 -22.93824,11.23876 -29.00704,-23.03011 -32.45061,-38.00619 -6.38208,-27.75586 -11.011,-58.32006 -5.82715,-86.66666 3.20293,-17.51448 11.40328,-33.88956 16.96912,-50.66666 m 224.00001,10.66666 c 15.35209,39.97998 19.62886,77.08545 9.50618,118.66666 -1.9751,8.11304 0.26025,29.30388 -8.25928,33.16048 -8.82946,3.99691 -14.255,-14.92911 -21.25309,-18.03084 -10.1237,-4.48706 -20.83773,3.89746 -30.66048,4.87036 0,-26.17838 -3.4561,-61.86596 5.41357,-86.66666 4.91765,-13.75041 16.84737,-23.00081 26.50619,-33.33333 6.09,-6.51481 11.28275,-13.63322 18.74691,-18.66667 m 5.33333,1.33334 c 17.44576,8.35595 36.70667,13.92285 56,15.82096 8.24955,0.8116 27.25411,-1.97778 33.91358,2.69759 9.37605,6.58252 13.75675,29.90096 18.46915,40.14811 4.53207,9.85498 16.4301,21.81055 18.40739,32 0.90796,4.67887 -2.72339,10.3103 -4.1049,14.66666 -3.34301,10.54175 -5.82869,21.35319 -8.80249,32 -10.1285,36.26164 -16.97314,73.486 -28.5494,109.33333 -14.08243,-9.52881 -25.24829,-28.212 -33.86417,-42.66667 -8.89616,-14.92488 -18.79814,-31.26554 -23.82101,-47.99999 -3.243,-10.80461 -2.85416,-22.38737 -5.58642,-33.33333 -1.80355,-7.22535 -5.77242,-14.05575 -7.0247,-21.33334 -2.70565,-15.72403 -1.54427,-32.12752 -3.21607,-47.99999 -1.21928,-11.57634 -3.74874,-23.61719 -7.3765,-34.66667 -1.80172,-5.48763 -6.05969,-13.07234 -4.44446,-18.66666 m 286.66667,5.33333 c 11.71989,11.86475 22.72893,24.75797 33.67904,37.33333 5.53402,6.35539 12.91707,12.51383 16.92586,20 10.74602,20.06754 8.12167,54.55127 4.06177,76 -4.77327,-2.30241 -11.5979,-10.06877 -17.30868,-7.9445 -7.5288,2.80053 -8.50195,14.00944 -13.24072,19.48771 -6.08366,7.03304 -19.12956,1.30468 -25.41976,-2.61727 -8.57129,-5.34432 -7.32259,-22.45882 -9.09871,-31.59261 -5.63949,-29.00179 -4.46737,-52.64835 1.8518,-81.33333 1.94841,-8.84464 2.40202,-22.52872 8.5494,-29.33333 m -5.33333,1.33333 c -2.67033,22.3641 -11.53418,44.10067 -12.6049,66.66667 -0.60409,12.73038 5.3654,26.12825 2.64193,38.66666 -6.13273,28.23413 -20.448,50.26847 -32.32097,76 -8.53003,18.48673 -17.46419,50.65128 -40.38273,55.99999 l -29.82715,-113.33332 -7.24691,-25.33334 -4.83333,-14.66666 13.52466,-22.66667 23.0494,-53.33333 c 32.94669,10.63973 55.86173,-4.07544 88,-8 m -857.333353,13.33334 8,2.66666 -5.333333,14.66667 H 16 l -1.333333,-17.33333 m 386.666673,2.66666 -2.66666,12 h -1.33334 l -4,-12 h 8 m -336.000005,10.66667 -1.333334,1.33333 1.333334,-1.33333 m 1.333333,2.66666 c 14.325806,35.3112 42.306482,64.47844 55.092592,100 11.1669,31.02319 6.42455,65.26806 13.17902,97.33333 3.72431,17.68033 8.24316,35.21484 5.16049,53.33333 -0.9802,5.76106 -2.59073,15.97908 -9.45679,17.62345 -4.6056,1.10303 -10.03792,-3.16691 -13.22839,-5.99382 -7.70096,-6.8234 -24.551741,-25.15226 -25.820998,-35.62963 -0.866852,-7.15568 4.800426,-15.41187 5.561727,-22.66667 1.635732,-15.58764 0.450999,-32.32657 0.172842,-47.99999 -0.526042,-29.64071 -10.003622,-60.73055 -17.154318,-89.33333 -3.990204,-15.96086 -7.849894,-31.93506 -11.388891,-48 -1.256459,-5.70361 -4.513402,-13.17887 -2.117284,-18.66667 m 270.666672,37.33334 c -9.32092,49.24332 -19.32495,100.64468 -22.58643,150.66665 -0.71162,10.91447 -0.74617,22.63127 1.5247,33.33333 1.10325,5.1993 5.77332,12.13436 5.12346,17.33334 -0.4854,3.88322 -4.16893,6.64795 -6.64816,9.33333 -5.58225,6.04647 -16.6619,27.78735 -26.71604,24.66666 -5.92849,-1.84008 -6.47992,-10.1783 -6.67283,-15.33333 -0.58043,-15.50952 -0.0247,-31.1455 -0.0247,-46.66666 0,-28.68009 -3.8535,-61.39347 3.27161,-89.33333 4.55676,-17.86857 15.98411,-35.43571 26.06172,-50.66666 6.86984,-10.38281 14.94332,-28.22681 26.66667,-33.33333 m 4,12 c 0.30017,24.57625 6.55221,69.86059 29.33333,82.66666 -19.33675,30.09741 -16.98213,60.19506 -14.66666,94.66666 h -1.33334 c -11.25504,-39.68864 -1.578,-79.12679 -8.80863,-118.66666 -2.9189,-15.96167 -14.4446,-43.61271 -4.5247,-58.66666 m -192,3.21606 c -21.54261,3.28288 -18.76301,27.88574 -15.67285,44.78393 5.09903,27.8833 26.97251,45.12866 55.67285,39.62345 5.57084,-1.0686 9.8211,-4.77531 11.3395,-10.29012 3.91365,-14.21443 0.72987,-31.94156 2.17285,-46.66666 0.72023,-7.34969 2.61674,-15.95996 -2.34569,-22.45679 -7.85111,-10.2788 -39.6579,-6.74764 -51.16666,-4.99381 m 73.33333,0.11108 c -14.30605,3.95874 -9.33333,28.03443 -9.33333,39.33952 0,9.95304 -2.3147,33.0712 4.62964,40.87654 7.27164,8.17318 27.61434,4.39022 36.70369,1.93205 21.91693,-5.92733 29.30239,-34.75716 29.33334,-54.80859 0.0119,-7.72103 -0.29181,-16.45459 -5.76543,-22.55558 -3.60384,-4.01693 -7.94203,-3.92961 -12.90124,-4.66048 -12.13436,-1.78825 -30.75965,-3.4183 -42.66667,-0.12346 m 518.66668,-0.66048 c 19.88534,33.45996 23.33195,77.56022 33.88273,114.66666 2.91358,10.24683 6.07357,20.4139 8.96916,30.66667 1.10693,3.91935 3.97908,9.20727 2.99373,13.33333 -2.2762,9.53117 -18.05224,21.2806 -24.22217,29.33333 -12.77262,16.67017 -21.86857,36.11515 -28.29012,56 h -1.33333 c -4.65381,-21.10653 -15.8999,-42.13265 -29.7037,-58.66667 -6.11653,-7.32625 -20.09318,-15.30281 -23.42594,-24.08024 -1.48088,-3.90006 1.01331,-9.42968 1.96916,-13.25309 l 7.33333,-29.33333 c 9.41292,-37.65185 15.09391,-80.86523 31.82715,-115.99999 h 1.33333 c -0.25106,6.7653 4.82634,23.11336 13.90739,13.04321 4.23926,-4.70101 2.36336,-10.68481 4.75928,-15.70988 m -594.66668,3.04321 c 11.70284,-2.24829 25.42537,-0.39949 37.33333,-0.37654 4.95248,0.01 10.43728,-0.30469 13.66049,4.20988 3.54817,4.96972 2.33951,12.71525 2.33951,18.45678 0,13.75472 5.30404,53.41683 -12,56.75928 -29.28487,5.65657 -48.97041,-14.42367 -52.17284,-42.09261 -1.31693,-11.37826 -4.43807,-34.02181 10.83951,-36.95679 m 77.3395,0.0802 c 11.38066,-2.98414 26.90275,-0.65927 38.6605,-0.45061 4.79702,0.0851 10.50737,0.40064 13.90741,4.27775 4.33146,4.93921 4.72803,13.49007 4.75926,19.71607 0.0915,18.23999 -6.45744,47.93945 -26.66667,53.47525 -8.42415,2.30762 -28.49438,6.1482 -34.99381,-1.93204 -6.15432,-7.65121 -3.66921,-28.74105 -3.67286,-38.20988 -0.004,-9.9825 -5.45682,-33.34643 8.00617,-36.87654 m -150.672835,28.87654 -9.333334,69.33333 h -1.333333 c -3.377645,-11.76986 -8.156845,-21.70923 -20,-26.66667 v -1.33333 c 20.845088,-5.67073 20.659271,-26.5529 30.666667,-41.33333 m 332.000005,5.33333 v 56 h -1.33333 l -17.33333,-16 18.66666,-40 m 468.00001,127.99999 h -1.33333 V 470.66664 c 8.84285,3.98934 19.87378,12.30981 29.30249,4.87654 5.47046,-4.31274 7.75293,-21.16829 16.0555,-19.90747 4.91528,0.74642 11.28451,6.20297 12.49382,11.03093 2.02677,8.09155 -4.67839,19.70646 -5.48145,28 -1.06478,10.99707 3.91333,24.16837 6.8457,34.66666 1.61239,5.77262 4.77312,11.95532 0.48763,17.25309 -5.65934,6.9961 -15.92708,12.42481 -25.03702,11.87655 -6.6543,-0.40047 -14.99789,-3.81568 -21.30868,-0.62964 -6.4838,3.27336 -9.45435,11.83105 -12.02466,18.16666 M 590.66668,474.66664 c 2.5295,10.0227 0.74695,20.44319 1.41357,30.66666 1.88595,28.92383 1.25224,59.08341 -1.59261,88 -2.02824,20.61613 -8.2865,40.69864 -10.30859,61.33333 -2.13749,21.81233 -0.18128,57.54516 -30.8457,59.99999 0,-30.82185 -7.70521,-60.20186 -11.6543,-90.66666 -4.19068,-32.32845 -4.34571,-64.743 -4.34571,-97.33333 0,-15.20922 0.74284,-30.21524 1.30864,-45.33333 0.21167,-5.65608 -1.66256,-13.64062 2.98149,-17.91357 6.54463,-6.02165 22.79276,-10.65316 30.17285,-4.2963 7.76436,6.6879 10.08508,20.7303 22.87036,15.54321 m -572.000013,-2.66667 16,10.66667 v 1.33333 C 25.788109,485.98166 21.225193,490.06459 16,497.3333 h -1.333333 l 4,-25.33333 M 848.00002,485.3333 c -5.94719,23.25253 -11.51286,53.35995 -9.1543,77.33333 1.52254,15.47534 7.02914,30.205 10.21598,45.33333 6.77165,32.14616 12.24927,65.79512 12.27165,98.66666 h -1.33333 l -44.32097,-99.99999 -13.56176,-25.33333 -6.2592,-12 20.5061,-24 28.96916,-60 h 2.66667 m -817.333353,1.76547 c 20.618012,-4.49496 28.285111,16.68497 30.512345,32.9012 5.253902,38.25293 0.111206,78.18465 -6.191355,115.99999 -1.654694,9.92814 -1.973994,40.39591 -13.734569,43.54321 -16.410044,4.39152 -19.773166,-30.31486 -22.413581,-40.87654 -9.1288103,-36.51522 -18.14814333,-78.76367 -8.666667,-116 2.949748,-11.58447 6.750026,-32.57153 20.493827,-35.56786 m 345.333343,4.20369 c 22.08256,-7.85002 28.49206,21.9882 30.51233,36.69751 5.63334,41.01546 5.83589,77.91617 -2.51233,118.66666 -2.02735,9.89616 -3.7666,33.52498 -14.69137,37.58642 -18.41658,6.84668 -19.20967,-29.58524 -21.30863,-40.25309 -7.23605,-36.77645 -14.57817,-75.90136 -10.72221,-113.33333 1.24231,-12.05989 5.49166,-34.66088 18.72221,-39.36417 m 244,-0.63582 c 11.76591,19.70768 21.01136,40.41251 35.21607,58.66666 4.33545,5.57137 18.21537,16.73787 18.17899,24 -0.0197,3.92073 -4.94885,7.88452 -7.2716,10.66666 -6.75277,8.0883 -12.83435,16.47893 -18.5494,25.33334 -17.8665,27.68082 -27.32125,59.08101 -39.57406,89.33332 h -1.33333 c 0,-32.28112 3.14445,-65.45678 8.55554,-97.33332 3.16716,-18.65755 9.41378,-37.17896 11.26542,-56 1.24227,-12.6272 -2.66679,-25.09871 -5.15429,-37.33333 -1.07398,-5.28231 -3.50928,-12.34985 -1.33334,-17.33333 M 160,555.99997 c -3.40092,2.03409 -7.36295,3.7185 -9.90741,6.87036 -14.61679,18.10587 10.6801,32.37874 24.57408,37.12963 v 1.33334 c -5.58725,-1.43278 -12.77012,-5.42123 -18.58024,-3.1543 -10.77653,4.20459 -6.68169,24.21444 -4.45062,32.48763 5.0256,18.63574 19.76025,34.57723 31.56172,49.33333 5.45976,6.82666 10.3501,14.48421 19.46914,16 5.36678,-20.28377 3.42407,-44.43429 2.64197,-65.33333 -0.35569,-9.50464 -1.48979,-18.16301 -10.64197,-22.66667 11.9341,-6.9991 13.39642,-42.12898 -1.33333,-46.66666 C 206.67947,555.8512 204,543.33607 204,530.66663 c 0,-7.82023 2.40682,-21.21248 -3.27779,-27.54939 -3.43646,-3.83081 -9.30977,-4.21932 -14.05554,-4.99382 -11.47707,-1.87296 -33.95408,-5.89453 -43.5679,2.63583 -14.31082,12.69799 3.51668,48.71712 16.90123,55.24072 m 62.66667,4 v 1.33333 c -14.48551,5.32397 -13.55088,39.52164 -1.33333,46.66666 -18.33979,9.02482 -10.66667,49.33228 -10.66667,66.66667 0,4.50113 -1.86544,22.68847 6.67285,20.38273 6.74292,-1.82089 12.97787,-12.59408 17.2284,-17.71607 11.99941,-14.45955 26.06079,-30.60213 30.21604,-49.33333 1.78457,-8.04451 5.45286,-27.51993 -6.14199,-30.18522 -5.64622,-1.29785 -11.95455,2.14559 -17.30863,3.51856 v -1.33334 c 7.93675,-3.0476 17.75844,-6.79362 23.3395,-13.51855 9.07737,-10.93783 4.65303,-25.52287 -8.67283,-29.14811 11.12561,-10.71281 26.82063,-33.82348 20.49383,-50.66666 -5.76969,-15.36003 -33.43726,-10.58895 -45.82717,-8.98763 -4.67539,0.60424 -10.70577,0.96858 -14.40124,4.20979 C 207.71847,509.38522 212,532.32427 212,542.66663 c 0,4.11158 -0.78281,9.42806 1.41976,13.12346 2.08191,3.49292 5.58393,3.90315 9.24691,4.20988 m -22.66667,-4 c -12.47975,0 -33.5646,2.52758 -43.91975,-5.79012 -6.88515,-5.53044 -10.01922,-15.38103 -12.46914,-23.54322 -1.9967,-6.65226 -4.3827,-16.12467 0.2963,-22.23453 7.75798,-10.13037 30.77959,-5.26644 41.42593,-3.6482 4.01086,0.60971 10.76033,0.23218 13.48765,3.82723 2.7713,3.653 2.48211,11.03597 2.51235,15.38884 0.0843,12.14168 -0.52366,23.94531 -1.33334,36 m 16,0 c -2.2242,-11.79297 -1.33333,-24.03288 -1.33333,-36 0,-4.39486 -0.85378,-10.30794 1.62346,-14.21607 2.67374,-4.21809 8.66768,-4.15372 13.04321,-4.79012 11.30365,-1.64404 31.52006,-6.65405 41.06791,2.12964 6.91004,6.35702 3.69385,17.19238 1.35185,24.87655 -8.66083,28.41626 -29.81824,28 -55.7531,28 m 718.66669,-6.66667 c 7.18888,28.48584 -1.1447,63.45857 -4.98763,91.99999 -3.28768,24.41761 -3.66057,50.81852 -9.67904,74.66667 -9.82699,-2.86019 -21.29899,-12.48894 -26.45679,-21.33334 -5.42179,-9.29703 -4.05241,-24.1134 -5.86417,-34.66666 -4.64909,-27.08057 -25.41439,-69.43514 -6.91976,-94.642 8.42643,-11.4847 19.90674,-2.46924 31.24072,-4.59872 8.8977,-1.67179 14.57145,-8.26253 22.66667,-11.42594 m -741.33335,9.33333 v 1.33334 h -4 l 4,-1.33334 M 228,559.11105 c 1.03113,0 0.21363,0.6639 -0.44443,0.4445 L 228,559.11105 m -69.32716,1.44442 c 8.58776,-2.53817 34.8703,-0.92432 39.70371,7.64819 3.04877,5.40723 4.6577,32.81925 -2.58643,34.98144 -11.06477,3.30257 -38.3555,-11.83007 -44.28394,-20.59871 -4.95234,-7.32495 -1.5316,-19.46012 7.16666,-22.03092 m 81.32717,-0.2098 c 13.67818,-1.74675 37.33817,5.47624 23.24074,23.46907 -7.38741,9.42871 -29.79509,19.5127 -41.82099,19.72225 -8.53818,0.14876 -6.7087,-28.31738 -4.34568,-34.11727 3.27875,-8.04752 15.61874,-8.14095 22.92593,-9.07405 m -173.777785,12.54321 -0.444447,0.88884 0.444447,-0.88884 M 838.66668,882.66661 h -1.33333 c -16.53825,-30.2823 -15.27165,-69.85888 -24.5494,-102.66666 -2.50781,-8.86816 -5.41748,-17.78515 -10.84562,-25.33333 -5.19425,-7.22282 -13.15112,-13.14876 -16.60498,-21.33333 l 26.66667,-9.33333 c -7.35449,-0.41911 -13.97998,5.01969 -21.33334,6.2963 -17.01977,2.95483 -45.13224,-4.41642 -55.36417,-19.65438 -4.58635,-6.83016 -0.65056,-17.65755 -0.63583,-25.30859 0.0617,-32.00183 11.91976,-62.72281 31.53093,-87.99999 4.99487,-6.43799 15.69409,-23.32748 24.38883,-24.24072 5.9563,-0.62566 10.7684,10.72159 13.03085,14.90738 9.60392,17.76823 17.75211,36.30111 26.09879,54.66667 10.51408,23.13468 26.19833,49.68212 31.19133,74.66666 3.0568,15.29606 -0.55738,33.98274 -2.06169,49.33333 -2.62768,26.81421 -5.2421,53.49373 -10.58024,79.99999 -2.35832,11.71037 -4.01359,25.39128 -9.5988,36 m -160,-307.99998 c 23.38493,18.97485 49.78378,49.51693 51.91976,81.33333 1.00708,15.00114 4.61711,42.21224 -1.51855,56 -11.65568,26.19221 -49.3466,21.00016 -69.06788,9.33333 5.34656,6.88493 13.05994,9.00521 21.33334,10.66667 l -24,41.33333 -24,103.99999 h -2.66667 c -11.50981,-40.58724 -18.67525,-82.00349 -21.41357,-123.99999 -0.89124,-13.66878 -4.25623,-29.02612 -2.38274,-42.66667 3.24984,-23.66145 17.05929,-50.70377 27.46916,-71.99999 10.74386,-21.97949 23.42477,-49.90446 44.32715,-64 m -588.000011,16 12.000001,18.66667 C 95.822247,605.6139 82.620404,599.24809 90.666669,590.66663 M 201.33334,693.33329 c -7.9172,-3.34082 -12.42322,-10.7688 -17.60494,-17.33333 -11.38935,-14.42871 -25.76178,-29.59049 -29.84569,-48 -1.53576,-6.92293 -4.88619,-20.43758 1.33952,-26.03084 5.78025,-5.19303 21.18834,2.61214 27.44444,4.69751 4.97278,1.65763 12.92924,2.79207 16.32715,7.11727 4.12412,5.24959 3.66048,17.14013 3.67285,23.54939 0.036,18.65646 0.86406,37.49207 -1.33333,56 m 13.33333,0 c -4.45457,-17.65067 -1.33333,-39.16113 -1.33333,-57.33333 0,-6.61466 -1.05705,-16.73966 3.50616,-22.21606 3.98383,-4.78109 13.45331,-6.32007 19.16051,-8.06177 5.93078,-1.80989 17.69816,-7.92016 23.56791,-4.29622 7.67671,4.73958 3.91156,19.52539 2.52468,26.57405 -3.55245,18.05477 -19.13272,33.81339 -29.92593,48 -4.96433,6.52514 -9.78674,14.07633 -17.5,17.33333 M 88.000002,602.66663 c 13.932458,10.3217 32.788518,19.61206 40.679008,36 7.87764,16.36128 4.31203,44.05875 0.91976,61.33333 -5.20776,26.51961 -13.91191,52.27302 -19.71606,78.66666 -4.45806,20.27246 -5.90924,41.27653 -11.216041,61.33333 h -1.333334 l -13.154322,-69.33333 -2.845678,-105.33333 1.882716,-46.66666 4.783951,-16 m 236.000008,0 1.33333,10.66667 -16,4 14.66667,-14.66667 m 2.66666,12 c 8.12083,15.68815 8.24789,38.63533 9.41358,56 2.42747,36.1608 -1.57408,70.81567 -6.40123,106.66666 -1.69952,12.62231 -1.59594,26.58146 -5.67901,38.66666 -5.8227,-11.93359 -6.33411,-29.54476 -10.27777,-42.66666 -2.67605,-8.90414 -5.4738,-17.8396 -8.3889,-26.66667 -12.9354,-39.16894 -38.42607,-118.82364 21.33333,-131.99999 m -267.111111,15.55558 -0.444448,0.88884 0.444448,-0.88884 m -0.888891,7.11108 -1.148148,41.33334 11.993826,63.99999 6.487656,38.66667 c -6.056921,-3.47494 -7.019654,-13.88859 -13.388891,-16.06169 -4.967764,-1.69499 -4.987188,5.15918 -4.30247,8.06169 2.329122,9.87304 8.810572,18.08024 11.024694,27.99999 -18.284272,9.40259 -36.304098,-5.99479 -41.77778,-22.66666 C 16.085701,743.7314 23.975861,707.58427 24.000001,671.99996 h 1.333333 c 1.300835,2.3396 2.507436,4.6003 4.376544,6.56791 6.089938,6.41093 14.070508,4.63188 18.623456,-2.5741 7.280055,-11.52221 3.733928,-27.33105 10.333334,-38.66048 m 82.666672,32 46.66666,34.17285 20.14814,16.67285 1.1852,15.82097 -1.25309,37.33333 L 208,894.66661 h -1.33333 c -21.91111,-54.00813 -35.75382,-108.87515 -50.5,-165.33332 -3.62452,-13.87703 -8.2352,-27.48421 -11.97531,-41.33333 -1.50302,-5.56551 -4.55151,-13.12948 -2.85802,-18.66667 m -4,1.33334 c 6.42106,29.21199 10.12092,58.8186 16.54937,87.99999 8.88306,40.32381 20.94487,79.95231 30.95679,119.99999 4.06706,16.26823 13.03937,58.85368 -8.84566,67.16048 -29.04288,11.02376 -40.77859,-40.80778 -45.87655,-59.16048 -14.61977,-52.63118 -10.18744,-106.70784 -2.4568,-159.99999 1.81527,-12.51383 4.33507,-24.87076 6.45063,-37.33333 1.01027,-5.95141 0.6284,-13.30648 3.22222,-18.66666 m 148,2.66666 c 12.66713,65.97591 32.81582,142.92464 13.72839,209.33332 -5.37148,18.68832 -14.62127,66.46826 -41.72839,58.80249 -24.23413,-6.85327 -17.4988,-37.76977 -14.34568,-56.13582 8.3469,-48.61849 24.01084,-96.12141 28.83333,-145.33333 1.61316,-16.46166 1.80174,-31.90901 6.29631,-47.99999 1.79549,-6.42806 2.49178,-13.75464 7.21604,-18.66667 m -5.33333,2.66667 -61.33334,213.33332 c -3.79291,-5.75602 -2.66667,-13.33577 -2.66667,-20 0,-13.25277 0.78197,-26.77604 -0.0802,-40 -1.70473,-26.14599 -1.25309,-52.40771 -1.25309,-78.66666 0,-8.09847 -3.10307,-23.31396 0.0309,-30.58642 2.30235,-5.34261 10.10991,-9.01245 14.63581,-12.26546 14.05898,-10.10482 33.59041,-28.37403 50.66667,-31.81478 m 92,0 c 5.41984,15.26481 18.65385,13.17529 26.66667,1.33333 h 1.33333 c -0.94873,7.99089 -3.28003,15.88216 -2.48763,24 2.49898,25.60172 13.59814,59.77392 0.76542,84 -4.98588,9.41251 -26.4552,32.70605 -38.97534,20.49381 -6.81983,-6.6521 4.73148,-14.0118 7.27779,-19.16048 3.55452,-7.18726 -0.91589,-21.76221 -6.58024,-26.66667 -0.29277,9.38086 -2.4115,19.15251 -12,22.66667 l 2.13582,-26.66667 14.64197,-58.66666 7.22221,-21.33333 m 209.33334,14.66666 5.41357,69.33333 3.91976,26.66667 c -8.42424,-4.14551 -10.5575,-11.0625 -10.66667,-20 -8.30879,8.00285 -4.77034,22.47054 -0.75927,32 1.74051,4.13509 8.32177,10.99186 4.1173,15.36425 -8.3883,8.72323 -28.73225,-9.53092 -33.65433,-15.37044 -17.6364,-20.92374 -6.50558,-57.41503 -1.7037,-81.32714 17.86768,-1.26066 21.71651,-16.58187 33.33334,-26.66667 m 302.66667,85.33333 -17.33333,12 c 0.10229,-30.17415 13.50146,-62.28564 22.66666,-90.66666 7.87338,3.32243 24.90682,15.76823 29.48145,23.09261 3.29598,5.27718 0.77588,14.90299 1.36426,20.90739 1.91821,19.57422 5.34082,46.14176 -4.81478,63.99999 -4.86467,8.55437 -27.19393,27.79566 -35.25318,11.91358 -2.48437,-4.89592 1.08285,-11.1071 2.36418,-15.91358 2.33244,-8.74918 3.20516,-16.4235 1.52474,-25.33333 m -150.66667,-62.66666 14.66667,9.33333 -12,20 c -11.77116,-8.50944 -15.56625,-20.00146 -2.66667,-29.33333 m -462.66668,8 c -0.16872,49.73795 -17.48755,99.59977 -27.19753,147.99999 -3.78996,18.89136 -12.91026,46.55485 -0.71604,63.91976 2.10461,2.99707 4.84218,5.42887 7.91974,7.4012 26.38173,16.90706 37.85144,-18.91496 44.44446,-37.98763 17.35498,-50.20548 17.91005,-105.85221 4.88271,-157.33332 h 1.33333 c 12.01744,25.23323 21.75415,59.86539 19.91976,87.99999 -2.61192,40.05949 -17.80552,80.33805 -28.70372,118.66666 -2.29866,8.08431 -5.34273,16.8724 -5.62345,25.33333 -0.16142,4.86483 2.13688,9.8549 0.43827,14.66667 -2.44663,6.93074 -10.41941,11.80826 -14.99383,17.33336 -5.83425,7.0468 -8.25114,15.1821 -9.96912,24 -8.5907,44.0934 -7.4056,91.2856 -10.321,136 -1.39299,21.3644 -0.14303,44.4493 -5.41358,65.3333 l 17.33334,-14.6667 c -5.43252,21.5257 -6.53132,48.4374 1.90122,69.3334 2.17869,5.3988 15.81293,21.9719 10.77161,26.9938 -3.24313,3.2306 -9.87982,2.3379 -14.00617,2.3395 -11.97011,0 -24.03994,0.4508 -36,-0.025 -4.8493,-0.1928 -10.24394,-1.2004 -11.51851,-6.6728 -3.07074,-13.1843 8.62762,-29.4991 10.00616,-42.6358 2.24693,-21.412 -13.61826,-43.2067 -5.25926,-64 8.40925,-20.9183 28.49333,-32.7434 29.41358,-57.3334 1.4338,-38.3126 -0.20064,-78.6194 -9.14197,-116 -7.85669,-32.84615 -22.86078,-63.09843 -24.14197,-97.33329 -1.67745,-44.8234 19.49699,-86.62646 31.42593,-129.33333 5.17979,-18.54418 9.37911,-37.32307 14.05554,-55.99999 2.16632,-8.65194 3.52539,-21.0332 9.1605,-28 M 152,723.99996 c 9.4938,43.0581 21.34868,87.27953 34.68518,129.33332 5.23743,16.51514 19.79102,35.06494 21.2284,52 3.74925,44.17325 -16.72152,88.40763 -26.03087,130.66662 -8.88995,40.3553 -7.24371,81.8368 -7.21604,122.6667 H 176 l 4.34569,-97.3333 20.98765,-86.66669 h 1.33333 l 4,147.99999 -2.66667,76 c -10.93636,-7.9118 -23.12376,-26.9444 -26.66666,-40 H 176 c 3.01345,19.6541 23.08057,30.2103 28.72221,48 4.6117,14.542 -3.72243,30.8883 -4.64196,45.3333 -1.3901,21.8373 5.25309,44.5745 5.25309,66.6667 -13.31252,0.1626 -26.59308,1.3592 -40,1.3333 -5.02465,-0.01 -12.75731,0.4302 -15.91359,-4.4506 -4.56483,-7.059 14.30749,-21.4294 16.3889,-30.216 7.02546,-29.658 -6.46754,-51.5438 -8.47531,-80 l 32,26.6666 c -3.18602,-15.8655 -9.80341,-30.8814 -13.5,-46.6666 -3.89445,-16.6302 -4.66547,-33.7725 -6.32099,-50.6667 -3.49941,-35.7105 2.78459,-74.3991 -6.7037,-109.3333 -2.5232,-9.29 -7.5637,-18.3944 -14.8889,-24.7593 -4.59496,-3.99252 -14.2307,-6.97738 -16.61728,-12.77775 -1.73698,-4.2216 -0.42438,-9.98967 -0.71605,-14.46298 -0.70194,-10.76578 -1.80499,-21.50089 -4.41358,-31.99999 -7.13691,-28.72494 -21.73389,-58.59782 -24.66049,-88 -1.08005,-10.85075 1.92213,-22.6123 3.48148,-33.33333 3.68391,-25.32812 8.52215,-50.25407 16.33951,-74.66666 h 1.33333 c -6.44295,54.26831 -8.05853,108.98933 10.94445,161.33332 4.8404,13.33301 9.79751,27.59513 21.05555,36.96297 12.78162,10.63558 28.5764,4.96672 33.99382,-10.2963 8.17633,-23.03589 0.82751,-48.2124 -5.44444,-70.66667 -7.6555,-27.40755 -14.80796,-55.05899 -21.70987,-82.66666 -3.3123,-13.24918 -6.49524,-26.51912 -8.71606,-40 -0.8197,-4.97574 -2.80964,-11.37467 -0.79012,-15.99999 m 601.33335,2.66666 c 5.29175,18.66081 6.89689,38.32357 10.66667,57.33333 10.24715,51.67301 26.03751,104.55411 8.88891,155.99999 -6.00594,18.01791 -13.84977,36.95915 -30.22225,48 l -6.66666,-174.66666 1.33333,-43.99999 0.83333,-25.33334 11.16667,-17.33333 h 4 m -29.33333,259.99999 c -11.93571,-8.63461 -19.12867,-25.33106 -24.53085,-38.66667 -6.03166,-14.8894 -14.9056,-33.04996 -15.36426,-49.33333 -0.28491,-10.11605 4.02108,-20.81445 5.9939,-30.66666 4.5765,-22.85547 8.79842,-46.13827 11.17896,-69.33333 1.85791,-18.10287 3.2028,-36.71582 5.93831,-54.66667 0.87508,-5.74235 2.47819,-15.02351 10.11108,-15.25309 5.39519,-0.16227 9.42815,7.40316 11.98145,11.25309 8.12581,12.25245 4.02474,33.73877 4.02474,48 0,66.28182 -9.33333,132.30037 -9.33333,198.66666 m 86.66666,-14.66667 c -18.27384,-14.50814 -19.40055,-45.53434 -23.21606,-66.66666 -4.32577,-23.9585 -6.35254,-48.10596 -10.66667,-72 -6.26375,-34.69238 -15.28467,-68.91064 -19.4506,-103.99999 56.45199,8.50252 58.14461,73.45442 67.19751,118.66666 1.78027,8.89095 3.5179,18.15136 6.69141,26.66666 2.13639,5.73234 5.93432,10.9786 4.85799,17.33334 -4.77767,28.20784 -25.41358,50.49397 -25.41358,79.99999 M 705.33335,733.33329 c 0,19.92448 -3.67147,40.26554 -6.32097,59.99999 -5.55232,41.35612 -12.45369,82.09391 -22.51855,122.66666 -3.91036,15.76311 -6.02787,48.75073 -21.82715,57.33333 0,-31.58797 -15.79102,-56.54589 -20.75309,-86.66666 -1.93522,-11.74723 8.88952,-29.27766 11.41976,-41.33333 8.0531,-38.37011 7.36259,-111.99999 60,-111.99999 m -22.66667,173.33332 17.33334,50.66666 -29.33334,-1.33333 c 0.41349,-13.24902 4.68005,-38.30924 12,-49.33333 m 102.66667,0 10.66667,49.33333 c -12.58138,-2.76554 -16.63037,0.17302 -28,5.33333 l 11.4506,-33.33333 5.88273,-21.33333 m -62.66667,251.99999 h -1.33333 c -26.36605,-65.427 -35.29793,-132.6647 -40,-202.66666 16.92781,1.14844 24.04728,11.09961 33.33952,24 3.27962,4.55306 7.97827,8.9703 9.06168,14.66667 2.92147,15.36009 0.26547,33.68819 0.26547,49.33329 0,38.2317 -1.33334,76.5559 -1.33334,114.6667 m 64,-202.66666 c -0.38761,31.74593 -8.48763,64.81966 -14.11727,95.99996 -6.77661,37.5328 -12.92,76.5246 -27.21606,112 -6.02417,-12.4487 -4,-34.2358 -4,-48 0,-30.3012 -2.05835,-60.3304 -0.0802,-90.6666 0.60547,-9.286 -2.5166,-21.8658 0.71606,-30.64195 1.73283,-4.70451 7.1521,-8.25944 10.35181,-12.03093 9.43563,-11.12182 18.24422,-25.3278 34.3457,-26.66048 m -104,223.99996 c -8.28011,-7.6349 -12.63188,-21.955 -17.65434,-32 -21.23384,-42.4677 -24.96106,-89.2579 -15.94441,-136 2.93937,-15.23759 4.31612,-29.52112 13.15429,-42.66663 2.74068,-4.07633 6.70406,-11.07006 12.35804,-11.25309 6.20564,-0.20084 5.2045,8.64063 5.59879,12.58643 1.32992,13.30924 2.77816,26.65828 3.74072,39.99999 2.29476,31.8062 6.59001,62.5727 5.38892,94.6667 -0.93457,24.9728 -4.96818,49.7475 -6.64201,74.6666 m 100,-4 h -1.33333 l -6.58643,-117.3333 7.76547,-49.3333 8.15429,-52.00003 c 24.15568,11.73373 21.2697,41.34489 22.74691,64.00003 0.948,14.5381 0.0124,29.513 1.43213,44 1.37036,13.9835 3.67497,31.443 0.72217,45.3333 -2.17944,10.2522 -10.7098,20.2599 -15.77157,29.3333 -6.48144,11.6182 -10.43603,24.5542 -17.12964,36 M 218.66667,973.33327 c 21.82548,47.80173 26.66667,98.97753 26.66667,150.66663 0,11.0375 2.7053,22.2952 1.12964,33.3334 -1.80498,12.6446 -15.04533,31.3713 -25.12964,38.6666 l -4.64199,-85.3333 4.64199,-76 -0.17902,-30.6667 -2.48765,-30.66663 m -85.33333,20 c 28.30967,17.45833 28.76616,40.28733 30.74691,70.66663 2.14321,32.871 1.98953,65.861 5.4321,98.6667 2.23845,21.331 13.01168,41.7472 14.48765,62.6667 -19.58906,-8.2662 -30.4697,-32.0237 -37.38888,-50.6667 -8.80179,-23.7155 -17.28556,-48.0269 -19.76543,-73.3333 -1.68962,-17.2421 0.48747,-34.841 1.12962,-52 0.50052,-13.3745 0.65441,-26.7158 2.34568,-40 0.72074,-5.6612 -0.58398,-11.28404 3.01235,-16.00003 m 157.33333,4 c 4.48619,22.34013 8.83511,43.69153 7.9753,66.66663 -1.28906,34.4456 -11.83062,68.1146 -20.14813,101.3334 -5.064,20.2248 -10.45758,50.6573 -27.82717,64 0.0159,-23.4784 3.72595,-47.2445 5.25309,-70.6667 2.32048,-35.5897 3.72368,-71.1125 6.67284,-106.6667 1.57047,-18.9332 4.87632,-49.9767 28.07407,-54.66663 m 481.33335,84.00003 c 0,35.1208 7.95312,70.3005 6.64201,105.3333 -0.64991,17.3664 -7.46932,34.6194 -9.2531,52 -1.2832,12.5032 -0.7251,26.579 -4.25317,38.6667 -1.5555,5.3292 -5.50366,10.5592 -11.79623,8.4691 -19.79215,-6.574 -12.91455,-41.5769 -11.01855,-56.4691 2.39844,-18.8391 -2.23551,-40.2689 2.12964,-58.6667 1.81632,-7.6551 7.02181,-15.0469 9.56177,-22.6667 6.74349,-20.2303 13.87825,-45.4028 15.32096,-66.6666 h 2.66667 m -78.66667,4 c 6.30403,11.5574 8.03857,26.1164 12.01855,38.6666 4.51188,14.2274 13.81617,28.2154 16.88265,42.6667 2.12679,10.0228 -0.50195,20.6578 -0.87654,30.6667 -0.47022,12.565 1.30867,24.8417 1.30867,37.3333 0,10.8896 5.6923,47.3424 -10.67285,48.9814 -6.38883,0.6399 -9.90259,-4.937 -11.38265,-10.3147 -3.23185,-11.7428 -4.46842,-24.0313 -6.50008,-36 -2.79899,-16.4891 -8.88737,-33.9642 -9.21607,-50.6667 -0.39103,-19.8701 4.39942,-40.1862 5.69141,-60 0.75944,-11.6471 -2.23633,-31.0142 2.74691,-41.3333 m 121.33333,37.3333 c -5.26977,20.8815 -8.20166,41.8932 -14.68522,62.6667 -7.4379,23.8311 -17.67374,46.6225 -18.62345,72 -0.53255,14.2304 2.04346,28.4882 8.30249,41.3333 2.97379,6.1029 10.9624,16.9869 7.35807,23.9136 -5.77067,11.0898 -43.01497,9.8756 -51.30867,2.2963 -10.36638,-9.4736 -9.67823,-36.691 -5.70988,-48.8766 7.37337,7.9063 15.15039,19.0881 24.87654,6.642 4.75546,-6.0853 3.92717,-14.1053 4.63583,-21.3086 1.44913,-14.7298 3.06689,-29.396 5.70369,-44 6.20964,-34.3925 20.75399,-64.0611 36.78394,-94.6667 h 2.66666 m -162.66667,5.3333 c 10.76351,23.8578 26.40967,46.1839 32.47527,72 4.13338,17.5924 6.62516,35.5251 9.64819,53.3334 1.45776,8.5876 2.6438,19.0929 7.41976,26.5864 6.5992,10.3541 14.45141,4.9084 22.45679,0.08 2.1595,11.4501 8.25081,32.5129 0.57405,42.5803 -8.10596,10.6302 -43.99084,13.0436 -51.1543,0 -3.33288,-6.0687 -0.0964,-14.14 2.38273,-19.9136 4.84603,-11.2857 10.18181,-22.1091 10.77776,-34.6667 1.54915,-32.6444 -18.94882,-69.141 -27.91358,-100 -2.82739,-9.7326 -11.03418,-30.6032 -6.66667,-40 z"
       id="path1" />
    <g
       id="g3"
       style="fill:#e6e6e6">
      <path
         style="fill:#e6e6e6;stroke-width:0.999999"
         d="m 117.11456,399.66934 c -28.854709,-7.18319 -36.164454,-12.90999 -44.518094,-34.87763 -3.274797,-8.61175 -8.767671,-22.47385 -12.206389,-30.80465 -9.309737,-22.55421 -8.711824,-25.99527 6.453611,-37.14132 17.435749,-12.81465 36.702232,-31.36741 48.649482,-46.84728 9.84762,-12.7594 10.14311,-12.94074 19.38831,-11.89867 11.62564,1.31037 51.50333,21.39771 56.97216,28.69822 3.5947,4.79868 4.07049,10.82873 4.41942,56.0102 0.37632,48.72955 0.20333,50.98382 -4.60251,59.97829 -7.53053,14.09391 -14.7518,16.91858 -44.72492,17.49464 -13.97641,0.26861 -27.40039,-0.007 -29.83107,-0.6118 z"
         id="path2" />
      <path
         style="fill:#e6e6e6;stroke-width:0.999999"
         d="m 256.32621,401.86999 c -23.41408,-3.61358 -38.7316,-14.60807 -42.68613,-30.63893 -1.19921,-4.86136 -2.81211,-30.81089 -3.58422,-57.66563 -1.1076,-38.52327 -0.80351,-49.29186 1.44102,-51.03067 4.01661,-3.11162 40.1019,-17.0908 55.65372,-21.55985 7.16875,-2.06005 15.27391,-3.18339 18.01146,-2.4963 2.75241,0.69081 10.07604,8.12697 16.38345,16.63519 11.93569,16.10037 28.8195,32.64706 45.63204,44.72091 12.05007,8.65371 12.2045,7.49836 -6.29413,47.08956 -17.19748,36.80644 -22.14423,44.10797 -33.65963,49.68248 -9.49118,4.59461 -36.87916,7.42675 -50.89758,5.26324 z"
         id="path3" />
    </g>
    <g
       id="g5"
       style="fill:#e6e6e6">
      <path
         style="fill:#e6e6e6;stroke-width:0.999999"
         d="M 14.94172,337.38494 C 10.671451,334.67278 5.5745742,315.06943 5.5481903,301.25601 5.5087552,280.60962 12.97881,267.15033 33.14563,251.53188 c 15.039262,-11.64735 24.189562,-14.37141 51.928155,-15.45907 32.356855,-1.26876 34.502405,-0.0221 23.361655,13.57367 -13.597268,16.59367 -29.889232,31.71702 -49.13585,45.61136 -14.419821,10.40982 -19.95669,16.12745 -27.578256,28.47862 -9.461126,15.33228 -11.507596,16.99687 -16.779614,13.64848 z"
         id="path4" />
      <path
         style="fill:#e6e6e6;stroke-width:0.999999"
         d="m 391.19314,337.48705 c -1.71486,-2.10157 -7.05181,-8.87984 -11.8599,-15.06283 -4.80809,-6.18299 -18.04453,-18.98692 -29.41431,-28.45319 -21.98782,-18.30664 -48.89095,-44.86616 -52.74933,-52.07561 -2.24724,-4.199 -1.53129,-4.35052 20.39828,-4.31722 27.991,0.0425 45.22196,3.90544 58.75891,13.17289 25.86063,17.70428 36.73082,47.4695 28.03252,76.75984 -3.65733,12.31558 -8.3536,15.87398 -13.16617,9.97612 z"
         id="path5" />
    </g>
    <g
       id="g7"
       style="fill:#e6e6e6">
      <path
         style="fill:#e6e6e6;stroke-width:1"
         d="m 137.35894,233.14019 c -0.4905,-0.4905 -5.95674,-1.03079 -13.04688,-1.28957 -6.71148,-0.24496 -12.20268,-0.74398 -12.20268,-1.10894 0,-0.36495 -8.26172,-0.66355 -18.35938,-0.66355 -10.097656,0 -18.354747,-0.26368 -18.349091,-0.58594 0.0057,-0.32227 2.290605,-1.64063 5.077664,-2.92969 2.787059,-1.28906 5.067588,-2.5683 5.067841,-2.84274 2.54e-4,-0.27445 1.23093,-0.72983 2.734836,-1.01196 1.503907,-0.28214 2.734375,-0.84861 2.734375,-1.25882 0,-0.41022 0.703125,-0.74585 1.5625,-0.74585 0.859375,0 1.5625,-0.28094 1.5625,-0.62431 0,-0.34337 1.31836,-1.09351 2.929688,-1.66699 5.267367,-1.87466 8.789067,-3.53473 8.789067,-4.143 0,-0.32833 0.34915,-0.59695 0.77589,-0.59695 1.3341,0 7.03661,-2.68188 7.03661,-3.3093 0,-0.32833 0.51014,-0.59695 1.13365,-0.59695 0.62351,0 3.69968,-1.2696 6.83594,-2.82132 11.29567,-5.58876 10.81453,-5.41598 11.60459,-4.16721 0.39292,0.62103 0.71977,2.0752 0.72635,3.23148 0.007,1.15628 0.31719,2.29097 0.69024,2.52153 0.37305,0.23056 0.91059,2.17045 1.19452,4.31087 0.28394,2.14042 0.85762,4.10266 1.27485,4.36052 0.41724,0.25786 0.75861,1.15122 0.75861,1.98523 0,0.83402 0.35156,1.5164 0.78125,1.5164 0.42968,0 0.78125,0.53433 0.78125,1.1874 0,1.07498 3.47,7.23926 4.60897,8.1876 0.25803,0.21484 0.91158,1.18164 1.45233,2.14843 0.96519,1.72564 0.90727,1.75782 -3.16406,1.75782 -2.28098,0 -4.52713,-0.37989 -4.99143,-0.84419 z"
         id="path6" />
      <path
         style="fill:#e6e6e6;stroke-width:1"
         d="m 247.46094,240.04355 c 1.18164,-1.00155 2.14844,-2.22355 2.14844,-2.71556 0,-0.49201 0.61526,-1.08985 1.36724,-1.32852 1.32354,-0.42007 5.66401,-6.77822 5.66401,-8.29694 0,-0.41217 0.3474,-0.7494 0.77201,-0.7494 0.42461,0 0.99689,-1.40625 1.27173,-3.125 0.27484,-1.71875 0.80634,-3.125 1.18111,-3.125 0.37477,0 0.6814,-0.70313 0.6814,-1.5625 0,-0.85938 0.35156,-1.5625 0.78125,-1.5625 0.42968,0 0.79243,-0.79102 0.80609,-1.75782 0.0137,-0.96679 0.54101,-2.44024 1.17188,-3.27432 0.63086,-0.83408 1.14703,-2.32822 1.14703,-3.32031 0,-0.99209 0.35156,-1.8038 0.78125,-1.8038 0.42968,0 0.78125,-0.53212 0.78125,-1.18248 0,-0.65036 0.3259,-1.79294 0.72422,-2.53906 0.39832,-0.74613 0.88917,-1.90549 1.09079,-2.57637 0.26999,-0.89842 1.10831,-1.13318 3.18203,-0.89109 1.5485,0.18078 2.81546,0.64179 2.81546,1.02447 0,0.38268 1.05468,0.69578 2.34375,0.69578 1.28906,0 2.34375,0.32626 2.34375,0.72503 0,0.39877 1.93359,0.96662 4.29687,1.26189 2.36328,0.29528 4.29688,0.84792 4.29688,1.22809 0,0.38018 1.05468,0.69124 2.34375,0.69124 1.28906,0 2.34375,0.35156 2.34375,0.78125 0,0.42968 0.8789,0.78125 1.95312,0.78125 1.07422,0 1.95313,0.31857 1.95313,0.70793 0,0.38937 1.75781,0.9497 3.90625,1.24519 2.14843,0.29549 3.90625,0.77 3.90625,1.05447 0,0.77458 4.19255,2.47907 7.3635,2.99365 1.53601,0.24926 2.79275,0.75876 2.79275,1.13223 0,0.37346 0.70312,0.67903 1.5625,0.67903 0.85937,0 1.5625,0.35156 1.5625,0.78125 0,0.42968 0.34915,0.78125 0.77589,0.78125 1.3341,0 7.03661,2.68187 7.03661,3.30929 0,0.32833 0.70312,0.59696 1.5625,0.59696 0.85937,0 1.5625,0.34486 1.5625,0.76636 0,0.4215 0.8789,0.98696 1.95312,1.25657 1.07422,0.26961 1.95313,0.80365 1.95313,1.18676 0,0.38311 0.37667,0.69656 0.83705,0.69656 0.46038,0 1.32709,0.43945 1.92601,0.97656 2.58522,2.31838 3.46893,2.92969 4.23521,2.92969 0.44783,0 0.81423,0.52734 0.81423,1.17187 0,0.64453 0.43945,1.22874 0.97656,1.29825 3.81589,0.4938 -17.91291,1.27624 -37.45389,1.34868 -14.78527,0.0548 -23.76688,0.37897 -24.06955,0.8687 -0.26556,0.42968 -2.04412,0.78125 -3.95236,0.78125 -1.90823,0 -3.46951,0.30148 -3.46951,0.66995 0,0.36848 -2.18188,0.89801 -4.84861,1.17674 -2.66674,0.27873 -5.19799,0.85615 -5.625,1.28317 -0.42702,0.42701 -1.58499,0.77639 -2.57327,0.77639 -0.98828,0 -1.79687,0.35156 -1.79687,0.78125 0,0.42968 -0.84961,0.78125 -1.88803,0.78125 -1.03841,0 -2.0052,0.31007 -2.14843,0.68906 -0.14323,0.37898 -1.84245,0.92155 -3.77604,1.20571 l -3.51563,0.51664 z"
         id="path7" />
      <path
         style="fill:#e6e6e6;stroke-width:1.5;stroke-dasharray:none"
         d="m 709.91999,392.22329 c -4.44096,-7.8997 -8.74521,-16.35184 -9.56499,-18.78252 -0.81978,-2.43068 -10.73594,-23.80961 -22.03592,-47.50874 -25.5441,-53.57291 -25.1677,-52.36064 -17.21211,-55.43588 17.94902,-6.93822 63.73656,-17.05714 66.17026,-14.62345 1.51916,1.51917 -5.4008,129.09823 -7.69538,141.87487 l -1.58737,8.83883 z"
         id="path37" />
      <path
         style="fill:#e6e6e6;stroke-width:1.5;stroke-dasharray:none"
         d="m 742.61691,405.732 c -0.87034,-1.40824 -2.46089,-26.63033 -3.53455,-56.04908 -1.07366,-29.41875 -2.63711,-62.82042 -3.47432,-74.22594 -1.44508,-19.68646 -1.30999,-20.67316 2.66593,-19.47145 2.30348,0.69621 16.12058,4.31659 30.70466,8.04528 25.9979,6.64684 38.6699,10.74133 38.6699,12.49477 0,0.48438 -2.34729,4.59903 -5.21619,9.14366 -7.09756,11.24326 -15.59421,30.14834 -25.99671,57.84275 -14.39307,38.31846 -30.39521,67.75936 -33.81872,62.22001 z"
         id="path38" />
    </g>
    <g
       id="g9"
       style="fill:#e6e6e6">
      <path
         style="fill:#e6e6e6;stroke-width:1"
         d="m 33.203125,477.87973 c -1.503906,-0.72448 -2.851562,-1.5809 -2.994791,-1.90317 -0.14323,-0.32226 -0.764675,-0.58593 -1.38099,-0.58593 -1.096099,0 -6.559928,-5.09606 -6.563552,-6.12176 -10e-4,-0.28538 -1.06435,-1.74934 -2.362983,-3.25324 -1.298632,-1.50391 -2.566388,-3.52539 -2.817235,-4.49219 -0.250847,-0.9668 -0.769536,-1.75781 -1.152643,-1.75781 -0.383106,0 -0.696556,-0.70313 -0.696556,-1.5625 0,-0.85938 -0.292779,-1.5625 -0.65062,-1.5625 -0.633516,0 -2.143091,-6.00343 -2.997049,-11.91896 -0.232998,-1.61403 -0.738059,-3.12891 -1.122357,-3.36642 -0.9802439,-0.60583 -0.9011894,-28.24728 0.08253,-28.85525 0.429688,-0.26556 0.78125,-2.19915 0.78125,-4.29687 0,-2.09772 0.309546,-4.00535 0.68788,-4.23918 0.378334,-0.23382 0.937128,-3.41732 1.241764,-7.07443 0.304637,-3.65713 0.873997,-6.84716 1.265246,-7.08896 0.391248,-0.24181 0.71136,-1.82515 0.71136,-3.51854 0,-1.69339 0.351563,-3.07889 0.78125,-3.07889 0.429688,0 0.778298,-0.79102 0.774689,-1.75782 -0.0081,-2.17035 2.297335,-12.2021 3.22932,-14.0519 0.37592,-0.74612 0.683491,-2.21951 0.683491,-3.2742 0,-1.05469 0.320972,-2.11599 0.713272,-2.35845 0.392299,-0.24245 0.961255,-1.90862 1.264345,-3.7026 0.303091,-1.79398 1.170573,-4.36475 1.927739,-5.71282 0.757164,-1.34807 1.622393,-3.56983 1.922728,-4.93725 0.300336,-1.36742 0.869694,-2.48621 1.26524,-2.48621 0.395547,0 0.719176,-0.70313 0.719176,-1.5625 0,-0.85938 0.27417,-1.5625 0.609265,-1.5625 0.335096,0 1.291395,-1.75782 2.12511,-3.90625 0.833715,-2.14844 1.790014,-3.90625 2.12511,-3.90625 0.335096,0 0.609265,-0.70313 0.609265,-1.5625 0,-0.85938 0.323629,-1.5625 0.719176,-1.5625 0.395546,0 0.950823,-1.05469 1.233949,-2.34375 0.283126,-1.28907 0.838403,-2.34375 1.233949,-2.34375 0.395547,0 0.719176,-0.70313 0.719176,-1.5625 0,-0.85938 0.296202,-1.5625 0.658226,-1.5625 0.362025,0 1.320877,-1.23047 2.130784,-2.73438 0.809907,-1.50391 1.744175,-2.73437 2.07615,-2.73437 0.331975,0 0.60359,-0.37668 0.60359,-0.83706 0,-0.46038 0.495954,-1.33301 1.10212,-1.93917 0.606167,-0.60617 1.249652,-1.54471 1.429967,-2.08566 0.471901,-1.4157 2.936663,1.19737 2.936663,3.11337 0,0.81846 0.263672,1.75068 0.585938,2.07161 0.512824,0.5107 1.010824,2.52944 3.052096,12.37222 0.245058,1.18164 0.70825,2.14844 1.029316,2.14844 0.321067,0 0.794961,1.78327 1.053098,3.96283 0.471795,3.98358 1.695705,8.54484 2.969205,11.06563 0.376941,0.74612 0.694596,2.15237 0.7059,3.125 0.02555,2.19795 2.600075,12.07133 3.340807,12.81206 0.299689,0.29969 0.54489,1.54576 0.54489,2.76904 0,1.22327 0.335421,2.8346 0.745379,3.58072 0.409958,0.74613 1.131085,3.46597 1.602503,6.04409 1.533385,8.38588 1.766678,9.36956 2.316039,9.76563 3.384995,2.44043 3.286659,61.71875 -0.102385,61.71875 -0.360407,0 -0.655286,1.03393 -0.655286,2.29764 0,1.2637 -0.33125,2.50236 -0.736111,2.75258 -0.404861,0.25022 -0.972122,2.02878 -1.260581,3.95236 -0.288459,1.92358 -0.836115,3.49742 -1.217014,3.49742 -0.380899,0 -0.692544,0.52734 -0.692544,1.17187 0,0.64453 -0.351562,1.17188 -0.78125,1.17188 -0.429687,0 -0.78125,0.4724 -0.78125,1.04978 0,1.21149 -6.194934,10.66897 -6.9885,10.66897 -0.291154,0 -1.210898,0.63409 -2.043874,1.4091 -4.387988,4.0826 -12.801513,5.29675 -18.311376,2.6425 z"
         id="path8" />
      <path
         style="fill:#e6e6e6;stroke-width:1"
         d="m 368.35938,485.54688 c 0,-0.42969 -0.39914,-0.78125 -0.88698,-0.78125 -1.18248,0 -4.3332,-3.45483 -4.96441,-5.44357 -0.27715,-0.87323 -0.83178,-1.58768 -1.23251,-1.58768 -0.40073,0 -0.7286,-0.70313 -0.7286,-1.5625 0,-0.85938 -0.33002,-1.5625 -0.73338,-1.5625 -0.40336,0 -0.97063,-1.58203 -1.26059,-3.51563 -0.28996,-1.93359 -0.83884,-3.51562 -1.21974,-3.51562 -0.3809,0 -0.69254,-0.87891 -0.69254,-1.95313 0,-1.07422 -0.3026,-1.95312 -0.67243,-1.95312 -0.36984,0 -0.88363,-1.78328 -1.14177,-3.96284 -0.4718,-3.98358 -1.69571,-8.54484 -2.96921,-11.06562 -0.37694,-0.74613 -0.68534,-2.3953 -0.68534,-3.66483 0,-1.26954 -0.32179,-2.50713 -0.71509,-2.7502 -0.39329,-0.24307 -0.96194,-3.07631 -1.26366,-6.2961 -0.30172,-3.21979 -0.85884,-5.85416 -1.23804,-5.85416 -0.37921,0 -0.68946,-1.51172 -0.68946,-3.35938 0,-1.84765 -0.43946,-3.79873 -0.97657,-4.33572 -1.42027,-1.41996 -1.42027,-62.72777 0,-63.20247 0.53711,-0.17951 0.97657,-1.33103 0.97657,-2.55893 0,-1.2279 0.31862,-2.42946 0.70806,-2.67014 0.38943,-0.24069 0.94976,-2.19503 1.24518,-4.34299 0.29542,-2.14795 0.8557,-3.90537 1.24507,-3.90537 0.38936,0 0.70794,-0.82032 0.70794,-1.82292 0,-1.0026 0.23329,-2.05621 0.51842,-2.34134 0.79812,-0.79812 3.38783,-8.49087 3.38783,-10.06357 0,-0.76844 0.35156,-1.39717 0.78125,-1.39717 0.42968,0 0.78125,-0.66294 0.78125,-1.4732 0,-0.81026 0.52517,-2.48018 1.16706,-3.71094 0.64188,-1.23076 1.16923,-3.02875 1.17187,-3.99555 0.003,-0.9668 0.35638,-1.75781 0.78607,-1.75781 0.42968,0 0.78125,-0.45726 0.78125,-1.01613 0,-1.32718 1.81392,-5.21993 2.43601,-5.22778 0.4194,-0.005 5.31105,5.20667 12.60305,13.42831 1.18164,1.33229 2.14844,2.7108 2.14844,3.06336 0,0.88962 7.17227,11.95798 7.9563,12.27828 0.35059,0.14323 0.63961,0.84635 0.64226,1.5625 0.003,0.71614 0.52999,2.30906 1.17187,3.53982 0.64189,1.23076 1.16707,2.7249 1.16707,3.32031 0,0.59542 0.32363,1.08258 0.71917,1.08258 0.39555,0 0.94994,1.05065 1.23198,2.33479 0.28205,1.28413 0.83732,2.53535 1.23395,2.78048 0.39663,0.24513 0.72115,1.30385 0.72115,2.35271 0,1.04886 0.35156,1.90702 0.78125,1.90702 0.42968,0 0.78125,0.8789 0.78125,1.95312 0,1.07422 0.31857,1.95313 0.70794,1.95313 0.38936,0 0.9497,1.75781 1.24518,3.90625 0.29549,2.14843 0.85582,3.90625 1.24519,3.90625 0.38936,0 0.70794,1.16015 0.70794,2.57812 0,1.41797 0.3226,2.91211 0.71689,3.32031 0.39429,0.40821 1.2928,5.66407 1.9967,11.67969 1.99315,17.03385 0.5934,61.8797 -1.95891,62.76042 -0.41507,0.14323 -0.75468,1.26506 -0.75468,2.49296 0,1.22789 -0.32098,2.4309 -0.71328,2.67336 -0.39229,0.24245 -0.95054,1.84523 -1.24054,3.56173 -0.29,1.7165 -0.84794,3.12091 -1.23985,3.12091 -0.39192,0 -0.71258,0.70312 -0.71258,1.5625 0,0.85937 -0.35157,1.5625 -0.78125,1.5625 -0.42969,0 -0.79243,0.79101 -0.8061,1.75781 -0.0137,0.9668 -0.54101,2.44024 -1.17187,3.27432 -0.63087,0.83408 -1.14703,2.15244 -1.14703,2.92969 0,0.77725 -0.29621,1.41318 -0.65823,1.41318 -0.36202,0 -1.32197,1.2325 -2.13321,2.73888 -0.81125,1.50639 -2.09708,2.93633 -2.8574,3.17765 -0.76033,0.24132 -1.38241,0.76663 -1.38241,1.16737 0,0.40072 -0.68238,0.7286 -1.5164,0.7286 -0.83401,0 -1.73367,0.35156 -1.99923,0.78125 -0.26556,0.42968 -2.92303,0.78125 -5.90548,0.78125 -3.09426,0 -5.42264,-0.33546 -5.42264,-0.78125 z"
         id="path9" />
    </g>
    <g
       id="g13"
       style="fill:#e6e6e6">
      <path
         style="fill:#e6e6e6;stroke-width:1"
         d="m 165.82031,490.47317 c -1.61133,-0.18321 -2.92968,-0.66345 -2.92968,-1.0672 0,-0.40375 -0.71012,-0.73409 -1.57803,-0.73409 -2.77236,0 -12.48447,-6.95556 -12.48447,-8.94105 0,-0.47865 -0.70313,-1.37705 -1.5625,-1.99645 -0.85938,-0.61941 -1.5625,-1.60957 -1.5625,-2.20037 0,-0.97912 -2.18884,-5.45722 -3.125,-6.39338 -0.53215,-0.53215 -2.40968,-5.45585 -2.90462,-7.61719 -0.2214,-0.9668 -0.71311,-1.75781 -1.09271,-1.75781 -0.3796,0 -0.69017,-1.20972 -0.69017,-2.68827 0,-1.47855 -0.35157,-2.90555 -0.78125,-3.17111 -1.05035,-0.64915 -1.05035,-27.47585 0,-28.125 0.42968,-0.26556 0.78125,-1.51678 0.78125,-2.78048 0,-1.2637 0.35156,-2.29764 0.78125,-2.29764 0.42968,0 0.78125,-0.53488 0.78125,-1.18863 0,-0.65374 0.8789,-1.58908 1.95312,-2.07852 1.07422,-0.48945 1.95313,-1.18504 1.95313,-1.54576 0,-0.36071 3.86718,-0.65584 8.59375,-0.65584 5.20833,0 8.59375,-0.30777 8.59375,-0.78125 0,-0.49009 4.93254,-0.78125 13.23514,-0.78125 7.9807,0 13.42683,0.31016 13.71798,0.78125 0.26556,0.42968 1.7196,0.78125 3.2312,0.78125 1.996,0 3.37352,0.62515 5.03202,2.28365 1.91724,1.91724 2.28366,2.91266 2.28366,6.20389 0,2.15613 0.35156,4.13752 0.78125,4.40308 0.42968,0.26556 0.78125,3.60541 0.78125,7.42188 0,3.81647 -0.35157,7.15631 -0.78125,7.42187 -0.47949,0.29634 -0.78125,6.63337 -0.78125,16.40625 0,9.77288 -0.30177,16.10991 -0.78125,16.40625 -0.42969,0.26556 -0.78125,2.56592 -0.78125,5.11191 0,4.00935 -0.30494,4.97063 -2.27774,7.18045 l -2.27773,2.55139 -11.58945,0.0906 c -6.3742,0.0498 -12.90782,-0.0593 -14.51915,-0.24248 z"
         id="path10" />
      <path
         style="fill:#e6e6e6;stroke-width:1"
         d="m 224.70129,490.50172 c -1.02366,-0.22171 -2.68737,-1.22928 -3.69713,-2.23904 -1.71456,-1.71455 -1.89537,-2.78169 -2.73524,-16.14305 -0.49462,-7.86892 -1.05353,-21.80988 -1.24201,-30.97991 -0.28936,-14.0782 -0.14656,-17.16297 0.91764,-19.82266 1.78155,-4.45255 3.96895,-6.0255 8.42264,-6.05669 2.04101,-0.0143 3.71094,-0.37756 3.71094,-0.80724 0,-1.05681 26.29998,-1.05681 26.95312,0 0.26556,0.42968 3.62615,0.78125 7.46798,0.78125 4.13593,0 6.98515,0.31867 6.98515,0.78125 0,0.42968 0.47355,0.78125 1.05233,0.78125 1.89821,0 4.13226,2.67105 5.22744,6.25 2.10945,6.89347 0.67939,39.0625 -1.73651,39.0625 -0.35036,0 -0.63701,0.68237 -0.63701,1.51639 0,0.83402 -0.31171,1.70904 -0.69269,1.9445 -0.38098,0.23545 -0.92425,1.66245 -1.20727,3.1711 -0.28303,1.50866 -0.78461,2.74301 -1.11463,2.74301 -0.33001,0 -1.08283,1.23047 -1.67291,2.73437 -0.59009,1.50391 -1.33514,2.73438 -1.65568,2.73438 -0.32053,0 -0.82253,0.75538 -1.11556,1.67863 -0.66909,2.10813 -7.15201,8.47762 -8.62859,8.47762 -0.6051,0 -1.10017,0.35156 -1.10017,0.78125 0,0.42968 -0.84961,0.78125 -1.88803,0.78125 -1.03841,0 -2.02273,0.40415 -2.18739,0.89812 -0.31195,0.93585 -25.69646,1.7396 -29.42642,0.93172 z"
         id="path11" />
      <path
         style="fill:#e6e6e6;stroke-width:1"
         d="m 217.84186,554.53823 c -1.63957,-1.15477 -3.37276,-35.72607 -1.8666,-37.23223 0.45189,-0.45189 0.82162,-3.1692 0.82162,-6.03846 0,-3.60063 0.35043,-5.50768 1.13115,-6.15561 1.28335,-1.06509 7.85915,-2.33173 15.07978,-2.90468 2.68555,-0.2131 4.88282,-0.70901 4.88282,-1.10203 0,-0.40122 5.31039,-0.71459 12.10937,-0.71459 7.55208,0 12.10938,0.29402 12.10938,0.78125 0,0.42968 1.09604,0.78125 2.43566,0.78125 1.78764,0 3.24263,0.80697 5.46875,3.03309 3.02509,3.02509 3.03309,3.04979 3.03309,9.375 0,3.7071 -0.32458,6.34191 -0.78125,6.34191 -0.42969,0 -0.78125,1.23047 -0.78125,2.73437 0,1.50391 -0.35157,2.73438 -0.78125,2.73438 -0.42969,0 -0.78125,0.70789 -0.78125,1.5731 0,0.8652 -0.32473,2.18356 -0.72162,2.92969 -0.39688,0.74612 -1.89102,3.81752 -3.32031,6.82533 -3.35335,7.05684 -6.06349,10.00913 -11.83631,12.89384 -3.42017,1.70908 -5.79186,2.34054 -8.79082,2.34054 -2.25884,0 -4.22417,0.33354 -4.3674,0.74122 -0.32879,0.93581 -21.81674,1.92671 -23.04356,1.06263 z"
         id="path12" />
      <path
         style="fill:#e6e6e6;stroke-width:1"
         d="m 179.88281,554.4957 c -4.18982,-0.14048 -7.61718,-0.5942 -7.61718,-1.00836 0,-0.41413 -2.10938,-0.75296 -4.6875,-0.75296 -2.60417,0 -4.6875,-0.34722 -4.6875,-0.78125 0,-0.42969 -0.82172,-0.78125 -1.82603,-0.78125 -2.13635,0 -7.46253,-5.34063 -9.15487,-9.17969 -0.61561,-1.39648 -1.38502,-2.53906 -1.70982,-2.53906 -0.32479,0 -0.59053,-0.38632 -0.59053,-0.8585 0,-0.47217 -0.52735,-2.0542 -1.17188,-3.51562 l -2.34375,-5.31427 c -0.64453,-1.46142 -1.17187,-3.55004 -1.17187,-4.64139 0,-1.09134 -0.35157,-2.20154 -0.78125,-2.4671 -0.42969,-0.26556 -0.78125,-2.57146 -0.78125,-5.12423 0,-3.08914 -0.31354,-4.64139 -0.9375,-4.64139 -0.72917,0 -0.72917,-0.20834 0,-0.9375 0.51562,-0.51563 0.9375,-1.55377 0.9375,-2.30699 0,-2.72299 1.89614,-5.43194 4.63087,-6.61597 1.53505,-0.66462 3.40146,-1.53041 4.14759,-1.92397 1.86152,-0.98192 22.25091,-0.92334 22.86216,0.0657 0.26556,0.42968 3.42962,0.78125 7.03125,0.78125 3.60163,0 6.76569,0.35156 7.03125,0.78125 0.26556,0.42968 1.60467,0.78605 2.9758,0.79191 3.98615,0.0171 5.55219,0.71037 6.59477,2.91958 1.23566,2.61834 1.41968,46.28851 0.19506,46.28851 -0.42969,0 -0.78125,0.52734 -0.78125,1.17187 0,1.23921 0.6169,1.21919 -18.16407,0.58945 z"
         id="path13" />
    </g>
    <g
       id="g17"
       style="fill:#e6e6e6">
      <path
         style="fill:#e6e6e6;stroke-width:1"
         d="m 17.944351,489.84375 c 0.305336,-0.85937 0.74887,-4.27583 0.985632,-7.59212 l 0.430476,-6.02962 2.429145,1.69511 c 1.336031,0.9323 2.612082,1.95372 2.835671,2.2698 0.223589,0.31609 1.390666,0.94887 2.593504,1.40619 1.942851,0.73867 2.056317,0.96215 1.016466,2.002 -0.643782,0.64379 -1.559556,1.17052 -2.035053,1.17052 -1.257419,0 -4.820039,2.38969 -6.95872,4.66769 -1.553959,1.65518 -1.762867,1.72128 -1.297121,0.41043 z"
         id="path14" />
      <path
         style="fill:#e6e6e6;stroke-width:1"
         d="m 62.695313,506.19321 c -0.322266,-0.32684 -0.585938,-1.41456 -0.585938,-2.41717 0,-1.0026 -0.351562,-1.82291 -0.78125,-1.82291 -0.429687,0 -0.78125,-0.52735 -0.78125,-1.17188 0,-0.64453 -0.312436,-1.17187 -0.694304,-1.17187 -0.381867,0 -0.925141,-1.23047 -1.207275,-2.73438 -0.282135,-1.5039 -0.848604,-2.73437 -1.258822,-2.73437 -0.410217,0 -0.745849,-0.36093 -0.745849,-0.80207 0,-1.14053 -4.761464,-6.22918 -5.828654,-6.22918 -1.392442,0 -2.685833,-1.64127 -2.229835,-2.82958 0.227238,-0.59217 0.90289,-1.07667 1.501449,-1.07667 0.59856,0 1.08829,-0.35157 1.08829,-0.78125 0,-0.42969 0.533259,-0.78125 1.18502,-0.78125 1.430204,0 8.18998,-6.88599 8.18998,-8.34289 0,-0.56766 0.35725,-1.03211 0.79389,-1.03211 0.436639,0 1.403436,-1.31836 2.148438,-2.92969 0.745,-1.61133 1.548646,-3.10547 1.785878,-3.32031 0.237232,-0.21485 1.045279,-1.79688 1.795658,-3.51563 0.750381,-1.71875 1.69886,-3.73546 2.107732,-4.48159 0.408872,-0.74612 0.743404,-2.06448 0.743404,-2.92968 0,-0.86521 0.367493,-1.5731 0.816651,-1.5731 0.490498,0 0.641459,1.01404 0.377989,2.53906 -0.661826,3.83078 -1.900195,12.68031 -2.815122,20.11719 -0.449332,3.65234 -1.147447,7.25109 -1.551368,7.99721 -0.403919,0.74612 -0.7344,2.76761 -0.7344,4.49219 0,1.72458 -0.308662,3.1356 -0.685917,3.1356 -0.377254,0 -0.992488,3.37288 -1.367187,7.49529 -0.374699,4.12242 -0.944943,7.22788 -1.267208,6.90104 z"
         id="path15" />
      <path
         style="fill:#e6e6e6;stroke-width:1"
         d="m 351.80826,567.57813 c -1.64891,-3.60846 -2.37004,-17.85113 -2.68931,-53.11555 -0.21022,-23.21891 -0.65028,-38.96266 -1.10168,-39.41406 -0.4134,-0.4134 -0.75164,-3.66961 -0.75164,-7.23602 0,-3.5664 -0.31705,-6.48437 -0.70455,-6.48437 -0.38749,0 -0.94943,-2.11001 -1.24874,-4.68891 -0.29931,-2.57889 -0.86118,-4.8848 -1.24858,-5.12423 -0.38741,-0.23943 -0.70438,-1.39895 -0.70438,-2.57672 0,-1.17777 -0.31359,-2.47538 -0.69686,-2.88358 -0.86286,-0.91899 -2.46544,-18.81861 -2.32354,-25.95226 0.10326,-5.19171 0.11725,-5.15421 1.09849,2.94445 1.14688,9.46577 3.03543,20.21808 4.73408,26.95312 1.84478,7.31439 5.32905,17.94124 5.97689,18.22917 0.32226,0.14323 0.58594,1.1148 0.58594,2.15904 0,1.04424 0.32039,2.50908 0.71198,3.25521 0.39159,0.74612 1.32022,3.08055 2.06361,5.18762 1.26159,3.57587 2.04371,4.8391 5.04525,8.14881 1.53098,1.68817 4.3419,3.25453 5.84043,3.25453 1.6819,0 1.46345,1.79629 -0.38002,3.125 -0.85938,0.6194 -1.5625,1.5508 -1.5625,2.06979 0,0.51898 -0.45386,1.40817 -1.00857,1.97596 -1.37038,1.40274 -4.41752,8.0456 -4.9795,10.8555 -0.25148,1.25743 -0.76486,2.28625 -1.14084,2.28625 -0.37598,0 -0.68359,0.80859 -0.68359,1.79687 0,0.98828 -0.37707,2.17394 -0.83793,2.6348 -0.46085,0.46086 -1.01474,4.31047 -1.23085,8.55469 -0.21612,4.24422 -0.71937,8.41989 -1.11835,9.27926 -0.39898,0.85938 -0.81189,9.29688 -0.91758,18.75 -0.10569,9.45313 -0.43314,16.66016 -0.72766,16.01563 z"
         id="path16" />
      <path
         style="fill:#e6e6e6;stroke-width:1"
         d="m 400,494.62802 c -1.49394,-2.01717 -5.39121,-4.83763 -8.48172,-6.13824 -1.79449,-0.7552 -1.18166,-4.12385 1.11213,-6.11325 0.83062,-0.72039 1.51022,-1.52983 1.51022,-1.79874 0,-1.12046 2.75994,-6.74966 3.30929,-6.74966 0.32833,0 0.59696,-0.48716 0.59696,-1.08258 0,-0.59541 0.52517,-2.08955 1.16706,-3.32031 0.64188,-1.23076 1.16923,-3.02875 1.17187,-3.99555 0.003,-0.9668 0.35638,-1.75781 0.78607,-1.75781 0.42968,0 0.78125,-1.05469 0.78125,-2.34375 0,-1.28907 0.35156,-2.34375 0.78125,-2.34375 0.97946,0 1.03851,8.79561 0.0658,9.80468 -0.39349,0.40821 -0.9073,2.85157 -1.1418,5.42969 -0.2345,2.57813 -0.65514,6.40838 -0.93475,8.51168 -0.30433,2.28929 -0.13215,4.96416 0.42899,6.66443 0.51555,1.56213 0.81868,3.85334 0.67361,5.09157 l -0.26375,2.25133 z"
         id="path17" />
    </g>
    <g
       id="g19"
       style="fill:#e6e6e6">
      <path
         style="fill:#e6e6e6;stroke-width:1"
         d="m 206.69835,255.53831 c -0.6254,-0.75357 -0.65566,-1.26251 -0.0957,-1.60861 0.45055,-0.27846 0.82448,-1.45234 0.83095,-2.60862 0.006,-1.15628 0.51838,-3.50858 1.13758,-5.22733 0.6192,-1.71875 1.14125,-4.26758 1.16011,-5.66406 0.0189,-1.39649 0.38586,-2.53906 0.81555,-2.53906 0.42968,0 0.78125,-0.85816 0.78125,-1.90702 0,-1.04886 0.31862,-2.10395 0.70805,-2.34462 0.38944,-0.24068 0.94972,-2.19464 1.24507,-4.34211 0.29535,-2.14748 0.85563,-4.10143 1.24507,-4.34211 0.38943,-0.24069 0.70806,-1.29577 0.70806,-2.34463 0,-1.04886 0.27163,-1.90701 0.60362,-1.90701 0.61641,0 2.26304,-5.39351 3.04106,-9.96094 0.23788,-1.39649 0.74561,-2.53906 1.12829,-2.53906 0.38268,0 0.69578,-0.87891 0.69578,-1.95313 0,-1.07422 0.31857,-1.95312 0.70793,-1.95312 0.38937,0 0.9497,-1.75782 1.24519,-3.90625 0.29549,-2.14844 0.85582,-3.90625 1.24519,-3.90625 0.38936,0 0.70794,-0.87891 0.70794,-1.95313 0,-1.07422 0.33002,-1.95312 0.73338,-1.95312 0.40336,0 0.97062,-1.58204 1.26058,-3.51563 0.28996,-1.93359 0.83884,-3.51562 1.21974,-3.51562 0.3809,0 0.69255,-0.52735 0.69255,-1.17188 0,-0.64453 0.35156,-1.17187 0.78125,-1.17187 0.42968,0 0.78125,-0.49886 0.78125,-1.10857 0,-1.39413 2.53438,-5.91112 3.32031,-5.91774 0.32226,-0.003 0.58594,-0.50299 0.58594,-1.11172 0,-0.60872 0.26628,-1.22395 0.59175,-1.36718 0.32546,-0.14323 1.81454,-1.84245 3.30907,-3.77604 1.49453,-1.9336 3.07395,-3.89705 3.50981,-4.36322 0.43587,-0.46618 1.49562,-1.82349 2.35499,-3.01626 0.85938,-1.19276 2.00195,-2.63194 2.53906,-3.19816 0.53711,-0.56623 0.97657,-1.40618 0.97657,-1.86656 0,-0.46038 0.34486,-0.83705 0.76636,-0.83705 0.4215,0 0.99222,-0.89988 1.26827,-1.99973 0.33392,-1.33044 0.88323,-1.85339 1.64128,-1.5625 0.62666,0.24048 1.28641,0.43723 1.46611,0.43723 0.1797,0 0.32673,12.05504 0.32673,26.78898 0,21.58821 -0.23363,27.69296 -1.2034,31.44531 -1.30989,5.06837 -2.83491,8.95321 -3.51464,8.95321 -0.2367,0 -1.08277,1.58203 -1.88015,3.51562 -0.79738,1.93359 -1.74836,3.51563 -2.1133,3.51563 -0.36493,0 -0.66351,0.37667 -0.66351,0.83705 0,0.46038 -0.43946,1.32708 -0.97657,1.92601 -1.96485,2.191 -2.92968,3.42872 -2.92968,3.7583 0,0.72345 -14.10561,14.57239 -14.84247,14.57239 -0.43039,0 -0.78253,0.27161 -0.78253,0.60359 0,0.33197 -1.23047,1.26624 -2.73438,2.07615 -1.50391,0.8099 -2.73437,1.73786 -2.73437,2.06211 0,0.32426 -1.40441,0.82683 -3.12091,1.11683 -1.7165,0.29 -3.31928,0.84825 -3.56173,1.24054 -0.67979,1.09992 -3.95508,0.84397 -4.97839,-0.38904 z"
         id="path18" />
      <path
         style="fill:#e6e6e6;stroke-width:1"
         d="m 190.625,257.42188 c -0.26556,-0.42969 -1.16521,-0.78125 -1.99923,-0.78125 -0.83402,0 -1.51639,-0.33564 -1.51639,-0.74586 0,-0.41021 -1.23047,-0.97668 -2.73438,-1.25882 -1.50391,-0.28213 -2.73437,-0.8254 -2.73437,-1.20727 0,-0.38187 -0.52735,-0.6943 -1.17188,-0.6943 -0.64453,0 -1.17187,-0.32788 -1.17187,-0.72861 0,-0.40073 -0.74071,-0.96369 -1.64602,-1.25103 -3.59735,-1.14175 -12.75078,-10.32568 -14.96271,-15.01255 -0.45627,-0.9668 -1.12471,-1.75781 -1.48543,-1.75781 -0.36071,0 -0.65584,-0.52735 -0.65584,-1.17188 0,-0.64453 -0.32788,-1.17187 -0.72861,-1.17187 -0.40073,0 -0.97546,-0.79102 -1.27717,-1.75782 -0.30171,-0.96679 -0.80055,-1.93359 -1.10854,-2.14843 -0.86391,-0.60266 -3.72788,-9.88645 -5.06117,-16.40625 -0.91339,-4.46646 -1.19839,-11.20986 -1.19888,-28.36642 -3.6e-4,-12.72883 0.29751,-22.32279 0.68562,-22.08292 0.37744,0.23327 1.26606,1.57238 1.97472,2.97579 1.70504,3.37663 2.90912,5.26192 4.56559,7.14853 0.75195,0.85643 1.36719,1.82643 1.36719,2.15557 0,0.32913 0.8789,1.47733 1.95312,2.55155 1.07422,1.07422 1.95313,2.26255 1.95313,2.64075 0,0.37819 1.05468,1.62735 2.34375,2.77591 1.28906,1.14856 2.34375,2.61292 2.34375,3.25414 0,0.64121 0.35156,1.16585 0.78125,1.16585 0.42968,0 0.78125,0.68237 0.78125,1.51639 0,0.83402 0.35156,1.73367 0.78125,1.99923 0.42968,0.26556 0.78125,1.16522 0.78125,1.99923 0,0.83402 0.3474,1.5164 0.77201,1.5164 0.42461,0 0.99689,1.40625 1.27173,3.125 0.27484,1.71875 0.80634,3.125 1.18111,3.125 0.37477,0 0.6814,0.70312 0.6814,1.5625 0,0.85937 0.33563,1.5625 0.74584,1.5625 0.41022,0 0.97742,1.23435 1.26044,2.743 0.28303,1.50865 0.8263,2.93565 1.20728,3.17111 0.38098,0.23545 0.69269,1.11048 0.69269,1.94449 0,0.83402 0.35156,1.5164 0.78125,1.5164 0.42968,0 0.79272,0.61523 0.80675,1.36718 0.0295,1.58237 2.62613,9.35737 3.37527,10.1065 0.27801,0.27802 0.50548,1.32579 0.50548,2.3284 0,1.0026 0.29277,1.82292 0.65062,1.82292 0.35784,0 1.03894,1.8457 1.51356,4.10156 1.46194,6.94858 1.9556,8.77418 2.48225,9.17969 0.58574,0.451 2.28768,8.82032 2.89939,14.25781 0.39179,3.48263 -0.44562,4.93739 -1.68645,2.92969 z"
         id="path19" />
    </g>
    <g
       id="g24"
       style="fill:#e6e6e6">
      <path
         style="fill:#e6e6e6;stroke-width:0.999999"
         d="m 191.1969,681.61118 c -4.22229,-5.42286 -8.23364,-10.35692 -8.91411,-10.96459 -4.89615,-4.3723 -22.85315,-32.57471 -25.47817,-40.0148 -4.24877,-12.04231 -4.23464,-26.02959 0.0279,-27.6653 4.18521,-1.60602 41.01016,10.0585 42.29082,13.39587 0.53307,1.38915 0.69498,18.85686 0.35981,38.81714 l -0.60941,36.29141 z"
         id="path20" />
      <path
         style="fill:#e6e6e6;stroke-width:0.999999"
         d="m 184.51068,599.0332 c -16.09726,-6.05184 -19.22193,-7.6615 -26.08864,-13.43946 -8.39531,-7.06418 -9.12897,-14.48075 -2.08515,-21.07878 3.72019,-3.48475 6.64072,-4.31897 11.60097,-3.3137 3.64602,0.73891 10.84438,1.93522 15.99636,2.65846 5.15198,0.72323 10.23504,2.42425 11.2957,3.78005 2.7031,3.45526 4.47078,21.28137 2.74807,27.7129 -1.80664,6.74488 -3.83906,7.30032 -13.46731,3.68053 z"
         id="path21" />
      <path
         style="fill:#e6e6e6;stroke-width:0.999999"
         d="m 215.4466,655.55384 c 0,-30.42941 0.52797,-35.83598 3.86699,-39.59912 4.39374,-4.95184 36.6841,-14.95579 40.55392,-12.56412 3.60659,2.229 1.19622,24.94801 -3.63954,34.30448 -4.31998,8.35852 -34.9989,49.52594 -38.5378,51.7131 -1.48247,0.91622 -2.24357,-10.56844 -2.24357,-33.85434 z"
         id="path23" />
      <path
         style="fill:#e6e6e6;stroke-width:0.999999"
         d="m 219.15375,600.69678 c -0.82359,-0.82359 -1.49744,-8.25731 -1.49744,-16.51937 0,-12.9664 0.63068,-15.35946 4.60904,-17.48861 6.01593,-3.21963 26.54578,-5.2967 33.96003,-3.43584 12.5934,3.16074 10.15668,19.01359 -4.02955,26.21557 -17.97717,9.12654 -30.78984,13.4805 -33.04208,11.22825 z"
         id="path24" />
    </g>
    <g
       id="g26"
       style="display:inline;fill:#e6e6e6">
      <path
         style="fill:#e6e6e6;stroke-width:0.999999"
         d="m 35.051263,677.79431 c -3.997206,-2.58147 -8.531449,-15.38274 -13.880665,-39.1885 -2.7309,-12.15339 -5.97076,-25.08019 -7.199688,-28.72621 -1.228929,-3.64602 -2.774974,-22.71815 -3.435657,-42.38252 -1.2750133,-37.94914 -0.02974,-45.86071 10.806263,-68.65534 4.220418,-8.87808 4.978262,-9.39126 13.868466,-9.39126 10.231192,0 13.497988,2.50637 20.16089,15.46796 5.036295,9.79729 6.978954,60.14331 3.453198,89.4932 -5.79444,48.23539 -11.210823,76.30822 -15.786738,81.82186 -3.026313,3.64649 -4.35458,3.90608 -7.986069,1.56081 z"
         id="path25" />
      <path
         style="fill:#e6e6e6;stroke-width:0.999999"
         d="m 379.57849,681.14271 c -3.92224,-5.06868 -8.07894,-25.38473 -17.29322,-84.52136 -5.11809,-32.84752 -4.5976,-67.93466 1.23916,-83.53481 5.96194,-15.9347 12.93417,-21.83669 22.54148,-19.08135 10.64683,3.05347 13.34115,8.05027 18.3952,34.11519 8.05161,41.52395 4.69329,98.97028 -8.15939,139.5723 -4.80167,15.16862 -11.33023,20.41936 -16.72323,13.45003 z"
         id="path26" />
      <path
         style="fill:#e6e6e6;stroke-width:1.5;stroke-dasharray:none"
         d="m 550.74635,696.61067 c -0.58246,-8.81122 -3.15764,-27.03168 -5.72262,-40.48992 -7.5398,-39.56075 -11.95432,-104.19329 -10.1579,-148.72048 1.72719,-42.81097 2.56453,-45.11323 17.42145,-47.90041 10.39212,-1.94957 13.6912,-0.40411 19.25028,9.01783 3.06506,5.19489 6.81512,8.32973 10.95491,9.15769 5.12327,1.02465 6.5725,2.74074 7.78851,9.2226 2.08865,11.13346 -0.80498,105.00104 -3.69014,119.70585 -5.41947,27.6215 -6.88478,37.52251 -8.75702,59.17059 -1.45577,16.83257 -3.18876,24.7253 -6.66333,30.34726 -4.57369,7.40038 -14.33681,16.50937 -17.69494,16.50937 -0.9186,0 -2.14675,-7.20917 -2.7292,-16.02038 z"
         id="path54" />
      <path
         style="fill:#e6e6e6;stroke-width:1.5;stroke-dasharray:none"
         d="m 910.26122,707.75592 c -12.2421,-9.53869 -16.2092,-15.31117 -17.67523,-25.71902 -2.39144,-16.97775 -7.25691,-42.53062 -11.00447,-57.79419 -7.3619,-29.98454 -6.23454,-52.5781 3.00612,-60.24619 1.94569,-1.61457 9.84602,-2.73051 19.33078,-2.73051 13.22896,0 17.23589,-0.88299 22.8619,-5.038 l 6.8216,-5.038 0.27418,9.45742 c 0.45852,15.81597 -0.55295,32.49532 -3.65553,60.28071 -5.98749,53.62149 -10.34371,86.25043 -11.88644,89.03177 -1.20667,2.17547 -3.12407,1.652 -8.07291,-2.20399 z"
         id="path55" />
      <path
         style="fill:#e6e6e6;stroke-width:1.5;stroke-dasharray:none"
         d="m 874.02826,520.88208 -0.0885,-47.01306 6.51939,3.37131 c 7.87643,4.07306 17.55649,4.24625 22.60987,0.40452 2.04469,-1.55442 5.38435,-6.99183 7.42148,-12.08312 2.03713,-5.09128 4.34168,-9.22546 5.12123,-9.18705 0.77954,0.0384 4.28215,2.58869 7.78357,5.66731 5.6129,4.93514 6.07161,6.24406 3.87653,11.06174 -4.04019,8.86725 -5.28674,27.75426 -2.5373,38.44383 8.15382,31.7014 8.15494,31.09271 -0.0697,37.95897 -6.86826,5.73386 -8.93563,6.23521 -25.71179,6.23521 -17.62911,0 -18.35392,0.20448 -21.53965,6.0767 -3.01156,5.55115 -3.30432,2.01078 -3.38514,-40.93636 z"
         id="path56" />
    </g>
    <g
       id="g28"
       style="display:inline;fill:#e6e6e6">
      <path
         style="fill:#e6e6e6;stroke-width:0.999999"
         d="m 157.78553,940.54123 c -12.25969,-9.64348 -25.77195,-45.7403 -31.96211,-85.38396 -5.57222,-35.68619 -3.2205,-87.30059 6.64499,-145.84078 1.84333,-10.93806 3.36888,-20.63315 3.3901,-21.54466 0.0212,-0.9115 0.86541,-1.65728 1.87598,-1.65728 1.01057,0 4.0488,13.67257 6.75162,30.3835 5.33114,32.96116 11.83792,62.50059 22.51181,102.19902 16.24344,60.41277 19.6217,76.38945 19.67185,93.03342 0.0418,13.87655 -0.82645,18.10446 -4.99177,24.3068 -6.16951,9.18666 -15.66399,10.97646 -23.89247,4.50394 z"
         id="path27" />
      <path
         style="fill:#e6e6e6;stroke-width:0.999999"
         d="m 253.94017,937.70193 c -7.28228,-3.53361 -11.97707,-13.64953 -11.97707,-25.80712 0,-9.82123 5.39098,-39.77475 14.68437,-81.58976 8.13889,-36.62037 9.89962,-45.58207 14.00264,-71.27011 2.4265,-15.19175 4.42234,-31.95374 4.43522,-37.24888 0.0264,-10.85081 6.54429,-40.09093 8.93667,-40.09093 0.85829,0 2.12953,4.22607 2.82498,9.39127 1.39128,10.33318 6.17616,39.10321 11.76021,70.71067 5.43652,30.77242 6.44269,82.81972 2.01541,104.25357 -6.04084,29.24556 -17.47885,59.39426 -26.25681,69.20857 -4.70759,5.26337 -12.65413,6.21372 -20.42562,2.44272 z"
         id="path28" />
    </g>
    <g
       id="g32"
       style="fill:#e6e6e6">
      <path
         style="fill:#e6e6e6;stroke-width:1.5;stroke-dasharray:none"
         d="m 667.95576,1148.7127 c -18.47382,-38.7043 -20.02657,-46.6828 -18.85677,-96.8914 0.70894,-30.4282 2.04132,-45.9379 4.84062,-56.34753 4.26154,-15.84722 15.43598,-35.35534 20.2519,-35.35534 1.69631,0 3.13249,0.24859 3.1915,0.55243 0.059,0.30383 0.97393,9.99893 2.03316,21.54466 1.05923,11.54572 3.53783,37.39928 5.50801,57.45238 3.04184,30.9607 3.20683,43.0409 1.09386,80.0887 -3.50071,61.3797 -2.98264,60.5492 -18.06228,28.9561 z"
         id="path29" />
      <path
         style="fill:#e6e6e6;stroke-width:1.5;stroke-dasharray:none"
         d="m 715.64773,1139.1048 c -8.71467,-22.452 -18.14464,-60.4382 -23.03925,-92.8077 -2.85117,-18.8557 -8.81084,-86.80804 -7.70993,-87.90895 2.27488,-2.27488 17.12671,7.4493 21.03452,13.77227 2.43113,3.93364 7.41864,10.92508 11.08338,15.53655 l 6.66315,8.38449 -0.28208,36.70874 c -0.15515,20.1899 -0.90092,55.1046 -1.65728,77.5884 l -1.3752,40.8796 z"
         id="path30" />
      <path
         style="fill:#e6e6e6;stroke-width:1.5;stroke-dasharray:none"
         d="m 744.39091,1144.6291 c -1.05577,-7.292 -1.92165,-43.6263 -1.92418,-80.7429 l -0.005,-67.48464 13.86128,-15.48532 c 7.6237,-8.51692 16.82161,-17.23402 20.4398,-19.37134 l 6.57853,-3.88604 -0.0444,8.41134 c -0.0431,8.16233 -0.99088,15.15825 -7.7254,57.0249 -7.40268,46.0204 -19.26467,102.6031 -26.17327,124.8486 l -3.08813,9.9437 z"
         id="path31" />
      <path
         style="fill:#e6e6e6;stroke-width:1.5;stroke-dasharray:none"
         d="m 782.62816,1164.3263 c -0.68272,-2.3261 -2.41984,-26.6025 -3.86028,-53.9477 -2.02468,-38.4365 -2.02139,-53.2284 0.0145,-65.1864 2.35056,-13.8064 6.58236,-42.1499 10.81599,-72.44268 0.81255,-5.81397 2.47172,-10.71412 3.68706,-10.88922 1.21534,-0.1751 5.019,3.67435 8.45258,8.55434 7.30096,10.37652 9.15409,25.71697 11.67905,96.68046 l 1.52018,42.7245 -8.12997,13.3834 c -4.47148,7.3608 -11.46173,20.5764 -15.53388,29.3679 -5.52213,11.9219 -7.7194,14.9097 -8.64522,11.7554 z"
         id="path32" />
    </g>
    <g
       id="g34"
       style="fill:#e6e6e6">
      <path
         style="fill:#e6e6e6;stroke-width:1.5;stroke-dasharray:none"
         d="m 663.77243,552.9796 c -5.05266,-6.38053 -10.77043,-14.08689 -12.70617,-17.12524 -1.93574,-3.03835 -4.03968,-6.02221 -4.67543,-6.6308 -0.63574,-0.60858 -3.00579,-4.58606 -5.26677,-8.83883 -2.26099,-4.25277 -6.7649,-12.70416 -10.00869,-18.78086 -8.74655,-16.38514 -12.93918,-29.30517 -14.51733,-44.73666 -0.77625,-7.59041 -2.95189,-17.48772 -4.83474,-21.99402 -1.88286,-4.50631 -4.74732,-23.1552 -6.36547,-41.44198 -2.57787,-29.13259 -4.4913,-39.85226 -11.20013,-62.74707 -1.48381,-5.0637 -1.36384,-5.11347 4.8706,-2.0208 11.51111,5.71023 34.69921,10.59067 58.11122,12.23076 l 22.99312,1.61075 9.20313,21.57523 c 10.44091,24.47703 23.16983,48.03059 25.95689,48.03059 1.03032,0 0.8779,1.85993 -0.3387,4.13318 -1.21661,2.27324 -3.17534,7.99087 -4.35275,12.70582 -1.17741,4.71496 -3.60389,14.04168 -5.39219,20.72605 -1.78829,6.68437 -5.85006,22.59427 -9.02615,35.35534 -3.17609,12.76107 -8.73851,34.24509 -12.36093,47.74228 -3.62243,13.49719 -6.58622,26.17539 -6.58622,28.17379 0,6.35598 -4.05576,3.96289 -13.50329,-7.96753 z"
         id="path33" />
      <path
         style="fill:#e6e6e6;stroke-width:1.5;stroke-dasharray:none"
         d="m 788.30919,555.18931 c -2.76198,-7.78014 -19.59053,-72.03184 -25.89943,-98.88446 -2.14153,-9.11505 -6.07099,-22.59898 -8.73211,-29.96429 l -4.83841,-13.39148 8.34637,-12.02017 c 4.5905,-6.6111 12.53848,-21.96387 17.66217,-34.11727 5.12369,-12.15339 10.06069,-22.97716 10.9711,-24.05282 0.95207,-1.12488 5.80647,-0.91046 11.42659,0.5047 10.59612,2.66814 32.83647,-0.19327 57.71415,-7.42541 6.97331,-2.0272 13.00203,-3.34523 13.39715,-2.92896 0.7322,0.7714 -2.79659,19.74901 -7.7421,41.63647 -1.77497,7.85555 -2.29272,20.15923 -1.46409,34.79217 1.5912,28.09935 -3.08366,46.31933 -20.20625,78.7525 -6.33393,11.99759 -14.65273,29.34797 -18.48621,38.55639 -6.36569,15.29108 -22.2524,35.72418 -27.7755,35.72418 -1.00317,0 -2.97122,-3.2317 -4.37343,-7.18155 z"
         id="path34" />
    </g>
    <g
       id="g36"
       style="fill:#e6e6e6">
      <path
         style="fill:#e6e6e6;stroke-width:1.5;stroke-dasharray:none"
         d="m 610.98445,326.08695 c -22.03919,-8.22846 -21.18836,-6.79677 -10.35669,-17.42725 l 9.59517,-9.41695 8.85618,12.79222 c 4.87089,7.03571 9.57558,14.03517 10.45486,15.55434 2.21343,3.82428 -6.08217,3.1524 -18.54952,-1.50236 z"
         id="path35" />
      <path
         style="fill:#e6e6e6;stroke-width:1.5;stroke-dasharray:none"
         d="m 830.81879,330.06145 c 3.62859,-4.09419 10.04493,-11.17259 14.25854,-15.72978 l 7.66109,-8.28579 7.28612,7.06198 c 4.00737,3.8841 7.28612,7.88591 7.28612,8.89292 0,2.12155 -7.96433,5.50022 -22.09708,9.37414 -5.46903,1.49912 -12.42961,3.49176 -15.46796,4.42809 -5.51034,1.69813 -5.50763,1.68365 1.07317,-5.74156 z"
         id="path36" />
    </g>
    <g
       id="g41"
       style="display:inline;fill:#e6e6e6">
      <path
         style="fill:#e6e6e6;stroke-width:1.5;stroke-dasharray:none"
         d="m 646.97869,333.22273 c -2.68695,-0.52045 -7.87108,-5.10829 -11.52029,-10.19519 -3.64921,-5.0869 -7.42481,-10.24327 -8.39023,-11.45861 -5.04011,-6.34486 -9.65041,-14.88049 -9.03482,-16.72728 0.38403,-1.15207 7.15867,-6.00138 15.05476,-10.77624 l 14.35654,-8.68156 3.18848,7.044 c 3.41744,7.54978 22.40593,47.93012 23.83452,50.68574 0.88611,1.70922 -18.82424,1.78748 -27.48896,0.10916 z"
         id="path40" />
      <path
         style="fill:#e6e6e6;stroke-width:1.5;stroke-dasharray:none"
         d="m 803.22911,337.71832 c -14.73629,-2.3211 -15.77668,-2.90567 -14.22536,-7.99291 4.28286,-14.04468 14.33972,-34.36003 22.3878,-45.22441 5.06465,-6.83693 5.6058,-7.03232 11.30882,-4.08318 3.29429,1.70355 10.43332,7.04079 15.86449,11.86053 l 9.87487,8.76318 -12.76969,13.79279 c -7.02333,7.58603 -14.32698,16.1695 -16.23032,19.07438 -3.39278,5.17803 -5.05005,5.56751 -16.21061,3.80962 z"
         id="path41" />
    </g>
    <g
       id="g44"
       style="fill:#e6e6e6">
      <path
         style="fill:#e6e6e6;stroke-width:1.5;stroke-dasharray:none"
         d="m 534.47133,349.13397 c -5.7486,-18.40422 -5.46462,-43.20887 0.64819,-56.61805 10.18968,-22.35226 28.01041,-34.55288 86.21374,-59.02461 17.74304,-7.46011 15.08914,-7.68349 54.8376,4.61585 9.72272,3.0085 22.15233,6.76144 27.62136,8.33987 l 9.94369,2.86988 -7.73398,2.06131 c -4.25369,1.13373 -16.6833,4.45994 -27.62136,7.39159 -10.93806,2.93165 -29.33388,9.93299 -40.87961,15.55853 -19.9308,9.71108 -22.96157,12.19605 -59.94031,49.14607 l -38.94808,38.91782 z"
         id="path42" />
      <path
         style="fill:#e6e6e6;stroke-width:1.5;stroke-dasharray:none"
         d="m 908.1618,355.56234 c -24.74427,-28.04799 -70.04978,-73.73775 -77.99795,-78.6595 -7.01257,-4.3424 -7.14743,-4.67949 -3.25425,-8.13397 6.41198,-5.68944 18.1837,-10.85035 34.21371,-14.99983 16.78386,-4.34461 16.07567,-4.54398 41.54269,11.69485 26.73756,17.04897 29.59149,23.16462 28.13432,60.28877 -0.60016,15.2904 -2.47022,32.18505 -4.15569,37.54366 l -3.06449,9.74292 z"
         id="path43" />
      <path
         style="fill:#e6e6e6;stroke-width:1.5;stroke-dasharray:none"
         d="m 809.45309,269.5476 c -1.1697,-1.1697 -50.189,-15.40617 -58.15213,-16.88889 -5.07631,-0.94519 5.19895,-5.09453 32.04077,-12.93865 9.11505,-2.66374 21.02647,-6.29734 26.46981,-8.07467 16.05002,-5.24055 24.05881,-4.25413 43.05249,5.30268 l 17.39361,8.75172 -9.20127,1.47134 c -11.49446,1.83804 -31.11332,10.40872 -40.88206,17.8597 -7.76889,5.92561 -8.85486,6.38313 -10.72122,4.51677 z"
         id="path44" />
    </g>
    <g
       id="g46"
       style="display:inline;fill:#e6e6e6">
      <path
         style="display:inline;fill:#e6e6e6;stroke-width:1.5;stroke-dasharray:none"
         d="m 834.16525,868.89558 c -3.37515,-10.97569 -5.76736,-21.34232 -9.79913,-42.46453 -7.10553,-37.2255 -8.33437,-42.69399 -12.42724,-55.30308 -2.48421,-7.65325 -8.16196,-17.96408 -13.34772,-24.23956 l -9.02454,-10.92095 5.17396,-1.95334 c 10.01514,-3.78105 16.22952,-7.85628 16.89699,-11.08063 0.52739,-2.54763 -2.32107,-2.04823 -13.06134,2.28996 -15.87268,6.41126 -22.39182,5.99264 -41.2701,-2.65012 -17.91673,-8.20256 -22.58079,-13.19178 -22.56496,-24.13814 0.0214,-14.77195 6.1025,-50.60274 9.78767,-57.67013 1.88668,-3.61827 3.43645,-7.27117 3.44394,-8.11756 0.037,-4.17652 17.45547,-30.47212 29.30504,-44.23992 l 13.36836,-15.53242 3.91352,5.18827 c 6.07921,8.0594 22.96738,42.49525 41.61207,84.84918 2.67504,6.0767 5.76911,13.03728 6.87572,15.46796 1.10661,2.43068 5.41955,12.87155 9.58431,23.20194 l 7.57229,18.78253 -1.86108,27.62135 c -2.22338,32.99838 -7.31628,74.39747 -11.96086,97.22719 -1.8544,9.11505 -4.00435,19.82866 -4.77765,23.80802 -2.03769,10.48584 -4.18718,10.44942 -7.43925,-0.12596 z"
         id="path45" />
      <path
         style="display:inline;fill:#e6e6e6;stroke-width:1.5;stroke-dasharray:none"
         d="m 628.80204,862.33882 c -6.90645,-28.32334 -9.18976,-39.9472 -13.35486,-67.98673 -2.44028,-16.42809 -4.69129,-43.27605 -5.00223,-59.66213 -0.56501,-29.77522 -0.56035,-29.80599 7.86328,-51.88997 17.82352,-46.72742 38.30316,-84.15009 54.36844,-99.34808 l 6.91355,-6.54032 13.15532,13.8249 c 14.97945,15.74186 27.31794,36.42573 33.59832,56.3232 5.64002,17.86868 5.0154,56.95192 -1.05834,66.22162 -8.82825,13.4736 -24.541,18.3271 -44.36248,13.70306 -7.22027,-1.68438 -14.17665,-4.11138 -15.45862,-5.39335 -3.32289,-3.32289 -5.86637,-2.88088 -5.86637,1.01947 0,1.84268 3.72888,5.04489 8.2864,7.11603 4.55753,2.07114 8.65873,4.00179 9.1138,4.29034 0.45506,0.28854 -1.83735,3.69149 -5.09425,7.56209 -10.18214,12.10078 -16.62382,27.65197 -21.18228,51.13722 -4.8223,24.84449 -17.7022,81.22362 -18.55567,81.22362 -0.29435,0 -1.80816,-5.22044 -3.36401,-11.60097 z"
         id="path46" />
    </g>
    <g
       id="g48"
       style="fill:#e6e6e6">
      <path
         style="fill:#e6e6e6;stroke-width:1.5;stroke-dasharray:none"
         d="m 704.12797,1276.6592 c -1.11619,-2.1268 -4.17073,-16.7938 -6.78785,-32.5932 -2.61713,-15.7994 -6.23465,-34.8402 -8.03895,-42.3129 -2.71369,-11.239 -2.84639,-17.1572 -0.76797,-34.2505 1.38192,-11.3651 3.18765,-33.0934 4.01275,-48.2851 1.06262,-19.5651 1.9974,-25.6879 3.20494,-20.9923 3.95381,15.3747 15.44341,49.1999 19.2395,56.6409 3.57099,6.9997 4.21237,14.8545 4.96239,60.7727 0.49088,30.0534 -0.041,55.3475 -1.23665,58.8107 -2.45259,7.1038 -11.31515,8.4462 -14.58816,2.2097 z"
         id="path47" />
      <path
         style="fill:#e6e6e6;stroke-width:1.5;stroke-dasharray:none"
         d="m 746.57608,1275.6229 -5.88516,-9.3227 2.54607,-28.7948 c 1.40033,-15.8371 2.54463,-37.1815 2.54288,-47.432 -0.003,-14.8068 1.01119,-20.7109 4.93227,-28.7262 2.7145,-5.549 8.02439,-22.4725 11.79977,-37.608 l 6.86432,-27.5191 2.48846,23.0997 c 5.1237,47.5617 5.58081,68.5842 1.82356,83.8666 -1.94218,7.8997 -5.10686,28.2637 -7.03263,45.2534 -1.92576,16.9897 -4.54999,32.1538 -5.8316,33.6981 -4.09416,4.9331 -8.20873,3.0517 -14.24794,-6.515 z"
         id="path48" />
    </g>
    <g
       id="g50"
       style="fill:#e6e6e6">
      <path
         style="fill:#e6e6e6;stroke-width:1.5;stroke-dasharray:none"
         d="m 576.83827,463.94554 c -2.35342,-4.37002 -6.22317,-8.98602 -8.59946,-10.25777 -4.23017,-2.26392 -18.68319,-1.31982 -26.66099,1.74155 -3.81533,1.46408 -3.97414,-0.47502 -3.11324,-38.01318 0.71077,-30.99147 1.68327,-40.99126 4.49161,-46.18508 4.85263,-8.97458 39.2829,-45.57168 41.55336,-44.16847 6.52356,4.03179 16.69721,60.11095 14.39407,79.34305 -1.489,12.43376 -7.39633,47.30263 -9.7614,57.61801 -2.13967,9.33232 -7.25359,9.29986 -12.30395,-0.0781 z"
         id="path49" />
      <path
         style="fill:#e6e6e6;stroke-width:1.5;stroke-dasharray:none"
         d="m 881.28164,470.47044 c -3.8617,-1.93258 -7.55433,-4.90293 -8.20585,-6.60077 -0.65153,-1.69785 -2.81974,-14.78397 -4.81826,-29.08028 -4.31966,-30.9005 -3.35397,-53.20148 3.54621,-81.89405 l 4.9409,-20.54544 5.43645,5.07748 c 2.99004,2.79261 14.04279,14.82597 24.56165,26.7408 22.74987,25.76904 24.22598,29.83471 24.47165,67.40274 l 0.17783,27.19423 -4.91109,-3.43986 c -2.70111,-1.89192 -7.50864,-3.43986 -10.68341,-3.43986 -4.66408,0 -6.79697,2.01516 -11.1093,10.49611 -6.07033,11.93839 -11.77525,13.90989 -23.40678,8.0889 z"
         id="path50" />
    </g>
    <g
       id="g51"
       style="fill:#e6e6e6">
      <path
         style="fill:#e6e6e6;stroke-width:1.5;stroke-dasharray:none"
         d="m 732.51843,643.99324 c 0,-4.20727 -11.58282,-27.20009 -19.96791,-39.63791 -4.50634,-6.68437 -13.35182,-16.97216 -19.65661,-22.86176 l -11.46326,-10.70837 10.07899,-41.21979 c 5.54345,-22.67088 10.99853,-44.20289 12.12241,-47.84891 1.12387,-3.64602 4.18903,-15.57845 6.81145,-26.51651 2.62242,-10.93806 5.76429,-22.53659 6.98192,-25.77451 2.18081,-5.79919 2.27707,-5.82395 6.44374,-1.65728 2.32642,2.32642 5.65038,4.22985 7.38658,4.22985 4.69676,0 10.09965,-6.28083 10.11514,-11.75881 0.0128,-4.50561 0.20453,-4.44813 2.994,0.89739 4.00606,7.67692 8.43228,22.89547 18.90462,64.99928 4.8366,19.44544 10.40609,40.82437 12.37665,47.50874 1.97055,6.68437 4.35467,15.13651 5.29805,18.78252 0.94337,3.64602 2.42606,8.84478 3.29485,11.55279 1.25272,3.90471 -0.41842,7.10584 -8.07497,15.46797 -14.61584,15.96272 -25.04507,31.34416 -33.91093,50.01315 -7.81905,16.46468 -9.73472,19.32442 -9.73472,14.53216 z"
         id="path51" />
    </g>
    <g
       id="g53"
       style="fill:#e6e6e6">
      <path
         style="fill:#e6e6e6;stroke-width:1.5;stroke-dasharray:none"
         d="m 723.20607,245.17242 c -0.66555,-0.66555 -12.01793,-4.21771 -25.22751,-7.89368 -13.20957,-3.67596 -28.88854,-8.05227 -34.84215,-9.72513 -5.95361,-1.67285 -11.666,-3.88281 -12.69421,-4.91102 -1.02821,-1.02821 6.60253,-5.68508 16.9572,-10.3486 16.66042,-7.5035 20.53649,-10.43761 33.68645,-25.49999 20.64996,-23.65311 23.89486,-27.5911 26.66426,-32.35963 1.81981,-3.13347 2.43346,6.5689 2.46125,38.91514 0.0416,48.40466 -1.20461,57.6236 -7.00529,51.82291 z"
         id="path52" />
      <path
         style="fill:#e6e6e6;stroke-width:1.5;stroke-dasharray:none"
         d="m 735.94972,200.81749 c 0.83775,-25.37583 2.18966,-46.87503 3.00425,-47.776 0.8146,-0.90096 6.69594,5.65366 13.06967,14.56582 21.1512,29.57499 44.1581,50.049 56.2407,50.049 1.79436,0 4.3953,1.36497 5.77986,3.03327 2.04773,2.46735 0.13994,3.67309 -10.22555,6.46268 -11.93016,3.21067 -18.18787,5.0386 -47.54585,13.88852 -6.38053,1.9234 -13.90616,4.04103 -16.72361,4.70585 l -5.12265,1.20875 z"
         id="path53" />
    </g>
  </g>
</svg>
